<?xml version="1.0" standalone="no"?>
<!DOCTYPE svg PUBLIC "-//W3C//DTD SVG 20010904//EN"
 "http://www.w3.org/TR/2001/REC-SVG-20010904/DTD/svg10.dtd">
<svg version="1.0" xmlns="http://www.w3.org/2000/svg"
 width="378.000000pt" height="88.000000pt" viewBox="0 0 378.000000 88.000000"
 preserveAspectRatio="xMidYMid meet">
<metadata>
Created by potrace 1.16, written by Peter Selinger 2001-2019
</metadata>
<g transform="translate(0.000000,88.000000) scale(0.100000,-0.100000)"
fill="#000000" stroke="none">
<path d="M397 704 c-3 -3 -50 -7 -104 -8 -54 -1 -98 -7 -98 -12 0 -5 14 -10
31 -12 23 -2 34 -9 38 -25 8 -30 6 -261 -2 -317 -7 -43 -9 -45 -50 -54 -56
-13 -49 -32 9 -26 95 10 282 5 287 -7 8 -27 23 -12 17 16 -4 17 -1 38 7 50 16
26 4 38 -25 23 -26 -14 -102 -31 -135 -32 l-23 0 3 179 c2 99 6 183 10 186 4
4 22 10 39 14 36 7 52 31 22 31 -11 0 -22 -3 -26 -6z"/>
<path d="M1510 660 l-25 -19 24 -25 c22 -24 25 -24 52 -10 33 17 37 34 11 57
-23 21 -31 21 -62 -3z"/>
<path d="M2640 660 l-25 -19 24 -25 c22 -24 25 -24 52 -10 33 17 37 34 11 57
-23 21 -31 21 -62 -3z"/>
<path d="M3107 649 c-52 -12 -113 -45 -121 -64 -7 -18 9 -55 24 -55 6 0 10 6
10 14 0 7 9 25 21 40 46 59 129 17 129 -65 0 -48 -41 -103 -135 -182 -39 -32
-71 -62 -73 -66 -3 -10 290 -22 299 -13 4 4 10 27 14 52 l7 45 -25 -23 c-27
-26 -121 -41 -172 -28 -27 7 -27 8 48 77 93 86 123 140 108 197 -18 66 -61 89
-134 71z"/>
<path d="M3495 652 c-6 -4 -30 -34 -54 -67 -25 -33 -73 -95 -109 -137 l-64
-78 106 0 106 0 -7 -42 c-3 -24 -13 -48 -22 -55 -23 -17 -14 -19 69 -12 54 4
69 8 53 13 -13 5 -23 14 -23 21 0 7 -3 27 -6 44 -6 30 -5 31 29 31 30 0 37 4
46 31 16 46 14 49 -16 33 -59 -30 -61 -26 -55 106 l5 120 -24 0 c-13 0 -29 -4
-34 -8z m-18 -229 c-3 -2 -33 -3 -67 -1 l-62 3 63 80 64 79 3 -78 c2 -43 1
-80 -1 -83z"/>
<path d="M1111 559 c-13 -5 -36 -18 -51 -29 l-29 -20 -3 22 c-4 31 -43 34 -85
8 -38 -23 -42 -35 -12 -43 19 -5 20 -12 18 -124 l-2 -118 34 3 c42 3 94 34 67
40 -24 5 -32 41 -25 109 9 82 54 120 100 83 21 -17 22 -26 21 -129 -2 -124 -3
-122 66 -95 40 16 53 34 25 34 -32 0 -30 146 2 183 24 26 69 22 89 -8 13 -20
15 -45 13 -122 -5 -116 -2 -119 91 -77 63 28 72 44 21 36 -41 -6 -50 20 -44
115 7 94 0 119 -37 131 -37 13 -80 2 -125 -32 l-33 -25 -6 25 c-4 14 -18 29
-32 34 -30 12 -32 12 -63 -1z"/>
<path d="M2163 559 c-60 -11 -124 -46 -117 -64 8 -20 20 -19 44 5 28 28 66 26
86 -5 9 -13 14 -29 12 -36 -2 -6 -39 -30 -83 -52 -54 -29 -84 -51 -93 -69 -9
-19 -21 -28 -38 -28 -24 0 -24 0 -24 105 0 124 -12 145 -81 145 -44 0 -72 -11
-106 -43 l-23 -20 0 31 c0 39 -21 42 -80 12 -40 -21 -52 -40 -25 -40 24 0 35
-35 35 -109 l0 -70 -36 -7 c-20 -4 -40 -2 -46 4 -6 6 -9 54 -7 126 5 132 3
134 -73 95 l-40 -21 22 -15 c22 -16 23 -20 17 -124 -6 -94 -4 -110 10 -117 18
-10 70 1 116 24 26 14 27 14 27 -12 0 -23 3 -26 28 -20 71 17 99 37 67 50 -11
4 -15 22 -15 75 0 59 4 74 23 97 27 31 70 35 95 10 14 -14 17 -37 17 -121 -1
-78 2 -106 12 -109 8 -3 38 4 69 15 51 19 57 20 73 5 10 -9 31 -16 47 -16 32
0 108 32 118 49 12 19 24 12 31 -18 9 -43 32 -46 98 -11 l59 31 -6 -26 c-9
-35 12 -41 69 -20 49 19 56 30 25 38 -17 4 -20 14 -20 56 0 51 19 113 38 124
5 4 23 1 40 -5 27 -10 37 -10 62 5 48 29 54 17 47 -104 -6 -94 -4 -110 10
-117 18 -10 70 1 116 24 38 20 34 31 -10 30 l-38 -1 0 123 c0 115 -1 122 -20
122 -11 -1 -31 -7 -45 -15 -33 -19 -64 -19 -80 0 -19 23 -49 18 -80 -15 l-28
-30 -7 29 c-9 41 -26 44 -84 14 -47 -23 -59 -43 -26 -43 23 0 35 -35 35 -103
0 -62 -1 -65 -29 -77 -17 -6 -34 -9 -40 -6 -14 9 -28 65 -36 146 -4 36 -11 72
-16 81 -11 21 -43 27 -96 18z m41 -155 c15 -38 6 -62 -29 -79 -41 -19 -63 -17
-79 7 -13 21 14 54 59 74 39 17 42 17 49 -2z"/>
<path d="M588 542 c-57 -21 -65 -28 -39 -37 28 -9 34 -35 26 -123 -6 -70 -4
-79 15 -99 27 -29 91 -31 144 -3 41 20 56 19 56 -6 0 -19 36 -17 86 5 54 24
69 46 26 36 -46 -10 -54 14 -46 140 8 117 7 119 -65 94 -32 -11 -40 -24 -18
-31 8 -3 12 -30 12 -87 0 -76 -2 -84 -24 -102 -31 -25 -67 -18 -100 18 -22 26
-23 31 -17 120 4 51 4 93 -1 92 -4 0 -29 -8 -55 -17z"/>
<path d="M2802 445 c-7 -14 -12 -27 -12 -28 0 -2 33 -1 73 1 51 3 76 8 85 20
21 28 14 32 -61 32 -69 0 -74 -2 -85 -25z"/>
</g>
</svg>
