<?xml version="1.0" standalone="no"?>
<!DOCTYPE svg PUBLIC "-//W3C//DTD SVG 20010904//EN"
 "http://www.w3.org/TR/2001/REC-SVG-20010904/DTD/svg10.dtd">
<svg version="1.0" xmlns="http://www.w3.org/2000/svg"
 width="518.000000pt" height="336.000000pt" viewBox="0 0 518.000000 336.000000"
 preserveAspectRatio="xMidYMid meet">
<metadata>
Created by potrace 1.16, written by Peter Selinger 2001-2019
</metadata>
<g transform="translate(0.000000,336.000000) scale(0.100000,-0.100000)"
fill="#000000" stroke="none">
<path d="M840 3187 c-36 -4 -95 -10 -132 -13 -38 -3 -68 -10 -68 -15 0 -5 11
-9 25 -9 20 0 25 -5 25 -24 0 -31 -42 -166 -76 -242 l-26 -59 -13 31 c-16 39
-61 197 -70 247 -7 34 -5 39 14 44 47 12 16 23 -64 23 -78 0 -111 -11 -67 -22
11 -3 23 -26 35 -71 l17 -66 -26 -73 c-41 -115 -44 -118 -61 -77 -15 36 -83
264 -83 280 0 5 9 9 20 9 11 0 20 5 20 10 0 6 -33 10 -80 10 -47 0 -80 -4 -80
-10 0 -5 6 -10 14 -10 10 0 30 -48 61 -147 68 -220 90 -278 105 -278 16 0 63
77 98 162 14 35 28 60 31 57 3 -3 22 -53 42 -112 23 -69 41 -107 50 -107 16 0
68 94 155 285 35 78 68 136 77 138 24 5 32 -92 20 -263 -6 -82 -8 -153 -4
-158 9 -9 111 21 111 32 0 5 -9 11 -20 14 -18 5 -20 14 -20 77 0 66 2 74 29
101 63 63 131 19 131 -84 0 -29 -10 -64 -30 -103 -16 -32 -27 -60 -26 -62 2
-2 21 12 42 30 47 41 94 139 94 194 0 102 -106 141 -201 73 l-31 -22 3 92 c3
64 8 94 18 100 29 18 3 26 -59 18z"/>
<path d="M2283 3190 c-69 -6 -85 -14 -60 -33 10 -7 19 -34 23 -68 l6 -57 -40
-7 c-59 -10 -172 4 -179 22 -3 8 -12 12 -19 9 -19 -7 -114 -79 -114 -86 0 -4
25 -5 56 -2 l56 5 -20 -39 c-46 -92 -33 -167 35 -199 30 -15 42 -15 76 -5 43
13 111 52 122 70 13 21 -2 20 -41 -2 -72 -39 -144 5 -144 89 0 68 12 83 69 83
30 0 65 9 94 24 l47 23 0 -41 c-1 -22 -5 -86 -10 -141 -5 -55 -5 -103 -1 -108
9 -9 111 20 111 32 0 5 -9 11 -20 14 -18 5 -20 14 -20 77 0 66 2 74 29 101 63
63 131 19 131 -84 0 -29 -10 -64 -30 -103 -16 -32 -27 -60 -26 -62 2 -2 21 12
42 30 47 41 94 139 94 194 0 102 -106 141 -201 73 l-31 -22 3 92 c3 64 8 94
18 100 27 17 4 26 -56 21z"/>
<path d="M4025 3180 c-3 -6 1 -17 10 -26 14 -14 16 -40 13 -186 -2 -137 -6
-171 -18 -178 -42 -27 -57 -1 -72 121 -6 49 -17 97 -23 106 -16 22 -94 19
-149 -5 -49 -22 -89 -21 -115 2 -26 24 -50 20 -81 -14 l-28 -30 -7 29 c-9 41
-26 44 -84 14 -47 -23 -59 -43 -26 -43 27 0 37 -40 34 -143 -2 -71 1 -102 9
-105 15 -5 102 28 102 38 0 4 -9 10 -20 13 -17 4 -20 14 -20 56 0 51 19 113
38 124 5 4 23 1 40 -5 27 -11 37 -10 64 7 22 13 33 15 36 7 5 -17 19 -15 42 8
11 11 31 20 44 20 25 0 56 -32 56 -57 0 -7 -33 -29 -72 -49 -91 -45 -108 -60
-108 -94 0 -34 28 -60 66 -60 32 0 108 32 118 49 12 19 24 12 31 -18 9 -42 32
-46 88 -16 46 24 49 24 44 6 -7 -28 15 -33 68 -15 49 17 68 34 37 34 -11 0
-23 7 -26 16 -8 22 -7 74 2 74 4 0 37 -32 73 -72 l67 -73 61 21 c36 13 64 17
69 12 18 -18 82 -26 121 -16 37 9 117 65 107 75 -2 2 -24 -2 -49 -11 -34 -11
-54 -13 -80 -5 -35 9 -77 50 -77 73 0 7 48 34 107 59 136 60 137 60 130 -96
l-5 -109 27 7 c41 9 81 27 81 35 0 4 -7 10 -15 14 -11 4 -15 22 -15 75 0 59 4
74 23 97 27 31 70 35 95 10 14 -14 17 -37 17 -119 -1 -106 5 -121 40 -111 43
13 115 47 115 54 0 5 -18 6 -40 3 l-40 -6 0 107 c0 125 -11 146 -81 146 -44 0
-72 -11 -106 -43 l-23 -20 0 31 c0 40 -21 42 -90 7 -59 -30 -60 -30 -60 -6 0
46 -107 46 -173 -1 -52 -37 -75 -123 -52 -191 12 -35 11 -37 -8 -37 -13 0 -44
24 -80 61 l-58 61 44 47 c44 47 72 89 65 96 -9 9 -133 -11 -128 -20 3 -5 10
-10 17 -10 24 0 27 -17 9 -49 -17 -32 -79 -76 -90 -65 -10 10 12 273 23 277 6
2 11 8 11 13 0 12 -117 12 -125 -1z m465 -195 c18 -22 6 -42 -40 -65 l-40 -20
0 20 c0 33 29 80 49 80 10 0 24 -7 31 -15z m-606 -111 c15 -38 6 -62 -29 -79
-41 -19 -63 -17 -79 7 -13 21 14 54 59 74 39 17 42 17 49 -2z"/>
<path d="M3013 3155 c2 -5 16 -11 30 -13 l27 -3 0 -182 c0 -100 -4 -187 -8
-194 -4 -6 -24 -14 -45 -18 -58 -11 -46 -29 16 -21 28 3 85 6 125 6 41 0 72 4
72 10 0 6 -13 10 -30 10 -38 0 -50 23 -50 99 0 50 4 62 21 75 42 29 84 -9 165
-144 47 -77 103 -121 153 -117 19 1 36 8 39 15 2 8 -5 12 -25 10 -15 -1 -37 3
-49 10 -24 13 -84 121 -77 139 8 22 -18 84 -44 107 -13 11 -38 26 -55 32 l-31
10 92 79 c50 43 91 85 91 92 0 10 -22 13 -85 13 -69 0 -85 -3 -85 -15 0 -9 9
-15 25 -15 48 0 31 -39 -52 -120 l-78 -75 -3 35 c-2 19 -1 63 3 98 5 51 10 62
25 62 23 0 50 10 50 19 0 4 -50 7 -110 7 -71 0 -109 -4 -107 -11z"/>
<path d="M1270 3028 c-74 -21 -109 -61 -121 -137 -17 -113 62 -186 170 -159
37 9 117 65 107 75 -2 2 -24 -2 -49 -11 -34 -11 -54 -13 -80 -5 -35 9 -77 50
-77 73 0 7 48 34 107 59 136 60 137 60 130 -96 l-5 -109 27 7 c41 9 81 27 81
35 0 4 -7 10 -15 14 -11 4 -15 22 -15 75 0 59 4 74 23 97 27 31 70 35 95 10
14 -14 17 -37 17 -119 -1 -106 5 -121 40 -111 43 13 115 47 115 54 0 5 -18 6
-40 3 l-40 -6 0 107 c0 125 -11 146 -81 146 -44 0 -72 -11 -106 -43 l-23 -20
0 31 c0 40 -21 42 -90 7 -59 -30 -60 -30 -60 -6 0 12 -11 23 -31 30 -36 12
-32 13 -79 -1z m30 -43 c18 -22 6 -42 -40 -65 l-40 -20 0 20 c0 33 29 80 49
80 10 0 24 -7 31 -15z"/>
<path d="M2710 3028 c-74 -21 -109 -61 -121 -137 -17 -113 62 -186 170 -159
37 9 117 65 107 75 -2 2 -24 -2 -49 -11 -34 -11 -54 -13 -80 -5 -35 9 -77 50
-77 74 0 6 39 29 88 49 48 21 97 44 110 52 25 16 30 40 7 30 -8 -3 -22 -9 -30
-12 -10 -4 -15 0 -15 14 0 13 -10 24 -31 31 -36 12 -32 13 -79 -1z m30 -43
c18 -22 6 -42 -40 -65 l-40 -20 0 20 c0 33 29 80 49 80 10 0 24 -7 31 -15z"/>
<path d="M2613 2370 c-69 -6 -85 -14 -59 -33 24 -18 32 -150 18 -307 -6 -63
-7 -118 -3 -123 9 -9 111 20 111 32 0 5 -9 11 -20 14 -18 5 -20 14 -20 77 0
66 2 74 29 101 63 63 131 19 131 -84 0 -29 -10 -64 -30 -103 -16 -32 -27 -60
-26 -62 2 -2 21 12 42 30 47 41 94 139 94 194 0 102 -106 141 -201 73 l-31
-22 3 92 c3 64 8 94 18 100 27 17 4 26 -56 21z"/>
<path d="M1494 2359 c-4 -7 1 -16 10 -21 14 -8 16 -32 16 -187 0 -193 1 -191
-56 -191 -24 0 -24 1 -24 105 0 124 -12 145 -81 145 -44 0 -72 -11 -106 -43
l-23 -20 0 31 c0 39 -21 42 -80 12 -40 -21 -52 -40 -25 -40 29 0 38 -40 32
-148 l-5 -104 27 7 c41 9 81 27 81 35 0 4 -7 10 -15 14 -11 4 -15 22 -15 75 0
59 4 74 23 97 27 31 70 35 95 10 14 -14 17 -37 17 -121 -1 -80 2 -106 13 -110
8 -3 40 6 73 19 42 17 59 20 59 11 0 -7 13 -18 29 -25 25 -10 38 -8 92 14 57
23 65 24 80 10 41 -37 132 -34 189 6 24 17 25 17 43 -6 12 -17 28 -24 50 -24
34 0 110 31 121 49 12 19 24 12 31 -18 8 -37 27 -44 70 -27 29 13 33 13 28 0
-6 -15 12 -20 21 -5 3 5 34 6 69 4 50 -4 71 -1 103 15 44 23 69 47 78 79 10
31 -30 70 -80 79 -57 10 -94 32 -94 54 0 46 91 44 104 -3 6 -21 7 -21 36 11
35 38 37 48 9 57 -91 29 -219 -29 -219 -100 0 -32 27 -51 94 -69 71 -18 96
-38 80 -64 -19 -28 -92 -21 -120 11 l-22 25 -21 -24 c-45 -52 -67 -24 -83 107
-6 49 -17 97 -23 106 -18 24 -96 18 -161 -11 -40 -18 -52 -29 -48 -40 8 -21
20 -20 44 4 11 11 31 20 44 20 25 0 56 -32 56 -57 0 -7 -35 -30 -77 -52 -43
-21 -87 -48 -97 -60 -26 -29 -78 -42 -121 -30 -33 10 -75 50 -75 74 0 6 39 29
88 49 48 21 97 44 110 52 25 16 30 40 7 30 -8 -3 -22 -9 -30 -12 -10 -4 -15 0
-15 14 0 13 -10 24 -31 31 -56 19 -152 -19 -181 -72 -17 -32 -27 -107 -17
-139 10 -37 -20 -56 -59 -39 l-25 12 5 181 c4 153 7 183 21 193 10 7 17 15 17
19 0 11 -129 6 -136 -5z m326 -194 c18 -22 6 -42 -40 -65 l-40 -20 0 20 c0 33
29 80 49 80 10 0 24 -7 31 -15z m304 -111 c15 -38 6 -62 -29 -79 -41 -19 -63
-17 -79 7 -13 21 14 54 59 74 39 17 42 17 49 -2z"/>
<path d="M3401 2361 c-11 -7 -9 -13 8 -30 16 -16 21 -33 21 -71 l0 -50 -45 0
c-112 0 -187 -69 -187 -171 l0 -47 -48 -15 c-36 -12 -57 -13 -84 -6 -34 9 -76
50 -76 74 0 6 39 29 88 49 48 21 97 44 110 52 25 16 30 40 7 30 -8 -3 -22 -9
-30 -12 -10 -4 -15 0 -15 14 0 47 -106 47 -172 0 -35 -25 -50 -52 -59 -107
-22 -149 120 -217 245 -119 34 28 40 29 48 14 35 -62 105 -76 176 -36 32 19
32 19 32 -1 0 -31 27 -34 89 -7 l57 25 -1 -29 c0 -19 -9 -36 -24 -47 -13 -10
-19 -21 -14 -24 10 -6 106 54 118 73 9 15 -25 52 -41 46 -7 -3 -14 -1 -16 5
-2 5 -17 4 -36 -3 -30 -12 -35 -11 -48 6 -25 35 -13 365 14 374 7 2 12 8 12
13 0 11 -110 12 -129 0z m-331 -196 c18 -22 6 -42 -40 -65 l-40 -20 0 20 c0
33 29 80 49 80 10 0 24 -7 31 -15z m335 -10 c21 -20 25 -34 25 -79 0 -73 -13
-104 -46 -112 -84 -21 -153 128 -89 191 15 16 36 25 55 25 19 0 40 -9 55 -25z"/>
<path d="M210 2310 l-25 -19 24 -25 c22 -24 25 -24 52 -10 33 17 37 34 11 57
-23 21 -31 21 -62 -3z"/>
<path d="M453 2207 c-53 -10 -113 -64 -113 -99 0 -35 25 -54 94 -72 71 -18 96
-38 80 -64 -19 -28 -92 -21 -120 12 l-23 26 -17 -25 c-12 -19 -24 -25 -43 -23
l-26 3 0 123 c0 138 -1 140 -77 101 l-40 -21 22 -15 c22 -16 23 -20 17 -124
-8 -127 -2 -136 69 -114 36 11 42 10 37 -1 -6 -15 12 -19 21 -5 3 5 34 6 69 4
50 -4 71 -1 103 15 44 23 69 47 78 79 10 31 -30 70 -80 79 -83 15 -122 58 -75
83 27 15 78 -5 85 -32 5 -21 5 -21 26 -2 26 23 44 55 36 62 -12 12 -84 18
-123 10z"/>
<path d="M788 2192 c-57 -21 -65 -28 -39 -37 28 -9 34 -35 26 -123 -6 -70 -4
-79 15 -99 27 -29 91 -31 144 -3 41 20 56 19 56 -6 0 -19 36 -17 86 5 54 24
69 46 26 36 -46 -10 -54 14 -46 140 8 117 7 119 -65 94 -32 -11 -40 -24 -18
-31 8 -3 12 -30 12 -87 0 -76 -2 -84 -24 -102 -31 -25 -67 -18 -100 18 -22 26
-23 31 -17 120 4 51 4 93 -1 92 -4 0 -29 -8 -55 -17z"/>
<path d="M1247 1553 c-3 -5 -12 -34 -20 -66 -14 -54 -14 -58 1 -55 17 3 71 91
72 116 0 13 -46 17 -53 5z"/>
<path d="M215 1376 c-16 -8 -39 -21 -50 -30 -18 -14 -18 -15 -3 -16 10 0 28
-17 41 -37 30 -49 87 -186 87 -210 0 -10 -27 -55 -59 -100 -33 -45 -57 -84
-53 -87 9 -10 38 -7 91 11 51 16 73 41 26 29 -49 -13 -26 46 96 241 105 167
115 189 92 201 -9 5 -23 8 -32 6 -9 -1 -33 -6 -53 -9 -43 -7 -52 -25 -13 -25
25 0 29 -7 25 -45 -2 -25 -50 -135 -59 -135 -3 0 -21 41 -40 91 -19 50 -41 99
-50 109 -14 17 -19 18 -46 6z"/>
<path d="M645 1380 c-94 -20 -147 -83 -147 -172 0 -115 102 -165 208 -103 124
73 141 246 27 270 -51 11 -58 11 -88 5z m48 -54 c46 -43 56 -136 19 -178 -23
-27 -74 -23 -105 8 -46 45 -48 125 -5 172 28 28 59 28 91 -2z"/>
<path d="M1361 1363 c-47 -23 -59 -43 -26 -43 27 0 37 -40 34 -143 -2 -71 1
-102 9 -105 15 -5 102 28 102 38 0 4 -9 10 -20 13 -17 4 -20 14 -20 56 0 51
19 113 38 124 5 4 23 1 41 -6 24 -9 36 -9 51 1 25 15 33 15 24 0 -14 -22 -21
-101 -13 -133 18 -66 92 -102 168 -83 37 9 117 65 107 75 -2 2 -24 -2 -49 -11
-34 -11 -54 -13 -80 -5 -35 9 -77 50 -77 74 0 6 39 29 88 49 48 21 97 44 110
52 25 16 30 40 7 30 -8 -3 -22 -9 -30 -12 -10 -4 -15 0 -15 14 0 43 -97 48
-164 8 -27 -16 -62 -13 -85 8 -26 24 -49 20 -81 -14 l-28 -30 -7 29 c-9 41
-26 44 -84 14z m369 -28 c18 -22 6 -42 -40 -65 l-40 -20 0 20 c0 33 29 80 49
80 10 0 24 -7 31 -15z"/>
<path d="M2485 1380 c-16 -4 -40 -12 -52 -18 -26 -14 -157 -9 -209 8 -47 16
-126 7 -169 -20 -66 -41 -81 -132 -30 -180 19 -18 33 -21 74 -19 46 4 50 2 45
-17 -4 -16 4 -27 36 -49 71 -50 87 -88 50 -125 -28 -28 -108 -28 -144 1 -33
26 -33 46 0 80 47 49 9 39 -50 -14 -67 -60 -70 -80 -17 -111 108 -63 301 21
301 131 0 28 -8 38 -55 73 -30 22 -55 43 -55 46 0 3 10 24 22 47 12 23 24 56
28 72 5 27 10 31 57 36 28 4 56 10 62 13 6 4 0 -9 -14 -30 -33 -49 -38 -127
-9 -171 56 -88 196 -64 265 45 54 85 31 181 -48 197 -51 11 -58 11 -88 5z
m-316 -56 c23 -29 28 -83 11 -115 -26 -48 -110 4 -110 69 0 68 60 96 99 46z
m364 2 c46 -43 56 -136 19 -178 -23 -27 -74 -23 -105 8 -46 45 -48 125 -5 172
28 28 59 28 91 -2z"/>
<path d="M3573 1379 c-60 -11 -124 -46 -117 -64 8 -20 20 -19 44 5 11 11 31
20 44 20 25 0 56 -32 56 -57 0 -7 -33 -29 -72 -49 -86 -42 -108 -60 -108 -86
0 -13 -7 -18 -25 -18 l-25 0 0 105 c0 124 -12 145 -81 145 -44 0 -72 -11 -106
-43 l-23 -20 0 31 c0 39 -21 42 -80 12 -40 -21 -52 -40 -25 -40 29 0 38 -40
32 -148 l-5 -104 27 7 c41 9 81 27 81 35 0 4 -7 10 -15 14 -11 4 -15 22 -15
75 0 59 4 74 23 97 27 31 70 35 95 10 14 -14 17 -37 17 -121 -1 -78 2 -106 12
-110 8 -2 37 4 65 15 46 17 54 18 68 5 9 -8 30 -15 46 -15 32 0 108 32 118 49
12 19 24 12 31 -18 3 -16 14 -32 23 -36 19 -7 124 45 130 65 3 9 -1 11 -14 5
-61 -25 -70 -14 -85 107 -5 46 -14 93 -19 104 -10 25 -40 32 -97 23z m41 -155
c15 -38 6 -62 -29 -79 -41 -19 -63 -17 -79 7 -13 21 14 54 59 74 39 17 42 17
49 -2z"/>
<path d="M878 1362 c-57 -21 -65 -28 -39 -37 28 -9 34 -35 26 -123 -6 -70 -4
-79 15 -99 27 -29 91 -31 144 -3 41 20 56 19 56 -6 0 -19 36 -17 86 5 54 24
69 46 26 36 -46 -10 -54 14 -46 140 8 117 7 119 -65 94 -32 -11 -40 -24 -18
-31 8 -3 12 -30 12 -87 0 -76 -2 -84 -24 -102 -31 -25 -67 -18 -100 18 -22 26
-23 31 -17 120 4 51 4 93 -1 92 -4 0 -29 -8 -55 -17z"/>
<path d="M2698 1359 c-39 -20 -50 -39 -23 -39 29 0 38 -40 32 -148 l-5 -104
27 7 c41 9 81 27 81 35 0 4 -7 10 -15 14 -11 4 -15 22 -15 75 0 59 4 74 23 97
27 31 70 35 95 10 14 -14 17 -37 17 -119 -1 -106 5 -121 40 -111 43 13 115 47
115 54 0 5 -18 6 -40 3 l-40 -6 0 107 c0 125 -11 146 -81 146 -44 0 -72 -11
-106 -43 l-23 -20 0 31 c0 27 -4 32 -22 32 -13 -1 -40 -10 -60 -21z"/>
<path d="M2382 725 c-11 -24 -15 -25 -124 -27 -62 -1 -137 -1 -165 0 -42 3
-53 0 -53 -12 0 -10 12 -16 37 -18 30 -2 39 -8 44 -28 9 -33 11 -247 3 -343
l-7 -76 -38 -15 c-35 -14 -56 -32 -47 -41 2 -3 31 7 64 20 40 17 79 25 122 25
47 0 62 3 62 14 0 9 -12 16 -32 18 l-33 3 -3 74 -3 73 58 -7 c66 -8 73 -11 73
-31 0 -30 19 -12 25 24 4 20 9 49 11 65 6 30 -2 33 -30 12 -12 -9 -42 -15 -78
-15 l-59 0 3 108 3 107 53 -1 c60 -2 92 -23 92 -61 0 -47 25 -17 31 38 4 30
11 66 17 80 17 43 -7 56 -26 14z"/>
<path d="M3600 730 c-11 -11 -20 -24 -20 -30 0 -6 -36 -10 -89 -10 -78 0 -95
-3 -142 -28 -77 -40 -112 -99 -112 -190 0 -141 75 -214 221 -216 l73 0 -6 -34
c-5 -26 -3 -33 7 -30 7 3 14 13 16 24 1 10 15 45 29 76 29 63 25 86 -8 44 -47
-60 -127 -74 -177 -31 -42 35 -63 96 -64 180 0 90 26 148 77 172 49 23 109 5
137 -43 11 -19 23 -32 28 -29 4 2 10 28 14 56 5 36 14 58 32 74 14 13 21 26
15 29 -6 4 -19 -2 -31 -14z"/>
<path d="M2933 720 c-69 -6 -85 -14 -59 -33 24 -18 32 -150 18 -307 -6 -63 -7
-118 -3 -123 9 -9 111 20 111 32 0 5 -9 11 -20 14 -18 5 -20 14 -20 77 0 66 2
74 29 101 63 63 131 19 131 -84 0 -29 -10 -64 -30 -103 -16 -32 -27 -60 -26
-62 2 -2 21 12 42 30 47 41 94 139 94 194 0 102 -106 141 -201 73 l-31 -22 3
92 c3 64 8 94 18 100 27 17 4 26 -56 21z"/>
<path d="M1311 711 c-11 -7 -9 -13 8 -30 16 -16 21 -33 21 -71 l0 -50 -45 0
c-112 0 -187 -69 -187 -171 l0 -47 -48 -15 c-36 -12 -57 -13 -84 -6 -34 9 -76
50 -76 74 0 6 39 29 88 49 48 21 97 44 110 52 25 16 30 40 7 30 -8 -3 -22 -9
-30 -12 -10 -4 -15 0 -15 14 0 30 -51 45 -104 31 -86 -23 -126 -73 -128 -163
l-1 -54 -48 -15 c-35 -12 -56 -13 -83 -6 -34 9 -76 50 -76 74 0 6 39 29 88 49
48 21 97 44 110 52 26 17 30 39 5 29 -10 -4 -24 -9 -30 -12 -8 -3 -13 3 -13
15 0 13 -10 24 -31 31 -60 21 -154 -20 -184 -80 -15 -27 -22 -115 -14 -149 3
-11 -5 -16 -29 -18 l-32 -3 0 105 c0 125 -11 146 -81 146 -44 0 -72 -11 -106
-43 l-23 -20 0 31 c0 39 -21 42 -80 12 -40 -21 -52 -40 -25 -40 29 0 38 -40
32 -148 l-5 -104 27 7 c41 9 81 27 81 35 0 4 -7 10 -15 14 -11 4 -15 22 -15
75 0 59 4 74 23 97 27 31 70 35 95 10 14 -14 17 -37 17 -121 -1 -80 2 -106 13
-110 7 -3 43 7 78 21 62 24 66 25 84 9 47 -43 137 -36 202 16 l38 30 27 -31
c53 -58 141 -57 217 2 34 28 40 29 48 14 35 -62 105 -76 176 -36 32 19 32 19
32 -1 0 -11 7 -22 16 -26 16 -6 140 42 150 59 10 16 -1 18 -35 5 -29 -11 -34
-10 -47 7 -25 35 -13 365 14 374 7 2 12 8 12 13 0 11 -110 12 -129 0z m-611
-196 c18 -22 6 -42 -40 -65 l-40 -20 0 20 c0 33 29 80 49 80 10 0 24 -7 31
-15z m280 0 c18 -22 6 -42 -40 -65 l-40 -20 0 20 c0 33 29 80 49 80 10 0 24
-7 31 -15z m335 -10 c21 -20 25 -34 25 -79 0 -73 -13 -104 -46 -112 -84 -21
-153 128 -89 191 15 16 36 25 55 25 19 0 40 -9 55 -25z"/>
<path d="M4568 683 l-28 -4 1 -92 c0 -105 13 -244 23 -255 19 -18 42 94 53
266 5 75 4 92 -8 91 -8 -1 -26 -4 -41 -6z"/>
<path d="M2460 660 l-25 -19 24 -25 c22 -24 25 -24 52 -10 33 17 37 34 11 57
-23 21 -31 21 -62 -3z"/>
<path d="M4000 660 l-25 -19 24 -25 c22 -24 25 -24 52 -10 33 17 37 34 11 57
-23 21 -31 21 -62 -3z"/>
<path d="M1743 559 c-60 -11 -124 -46 -117 -64 8 -20 20 -19 44 5 11 11 31 20
44 20 25 0 56 -32 56 -57 0 -7 -33 -29 -72 -49 -91 -45 -108 -60 -108 -94 0
-34 28 -60 66 -60 32 0 108 32 118 49 12 19 24 12 31 -18 3 -16 14 -32 23 -36
19 -7 124 45 130 65 3 9 -1 11 -14 5 -61 -25 -70 -14 -85 107 -5 46 -14 93
-19 104 -10 25 -40 32 -97 23z m41 -155 c15 -38 6 -62 -29 -79 -41 -19 -63
-17 -79 7 -13 21 14 54 59 74 39 17 42 17 49 -2z"/>
<path d="M2703 557 c-53 -10 -113 -64 -113 -99 0 -35 25 -54 94 -72 71 -18 96
-38 80 -64 -19 -28 -92 -21 -120 12 l-23 26 -17 -25 c-12 -19 -24 -25 -43 -23
l-26 3 0 123 c0 138 -1 140 -77 101 l-40 -21 22 -15 c22 -16 23 -20 17 -124
-8 -127 -2 -136 69 -114 36 11 42 10 37 -1 -6 -15 12 -19 21 -5 3 5 34 6 69 4
50 -4 71 -1 103 15 44 23 69 47 78 79 10 31 -30 70 -80 79 -83 15 -122 58 -75
83 27 15 78 -5 85 -32 5 -21 5 -21 26 -2 26 23 44 55 36 62 -12 12 -84 18
-123 10z"/>
<path d="M3775 560 c-94 -20 -147 -83 -147 -172 0 -115 102 -165 208 -103 124
73 141 246 27 270 -51 11 -58 11 -88 5z m48 -54 c46 -43 56 -136 19 -178 -23
-27 -74 -23 -105 8 -46 45 -48 125 -5 172 28 28 59 28 91 -2z"/>
<path d="M3996 539 l-38 -21 22 -15 c22 -16 23 -20 17 -124 -6 -94 -4 -110 10
-117 18 -10 70 1 116 24 38 20 34 31 -10 30 l-38 -1 0 123 c0 138 -2 141 -79
101z"/>
<path d="M4158 539 c-39 -20 -50 -39 -23 -39 29 0 38 -40 32 -148 l-5 -104 27
7 c41 9 81 27 81 35 0 4 -7 10 -15 14 -11 4 -15 22 -15 75 0 59 4 74 23 97 27
31 70 35 95 10 14 -14 17 -37 17 -119 -1 -106 5 -121 40 -111 43 13 115 47
115 54 0 5 -18 6 -40 3 l-40 -6 0 107 c0 125 -11 146 -81 146 -44 0 -72 -11
-106 -43 l-23 -20 0 31 c0 27 -4 32 -22 32 -13 -1 -40 -10 -60 -21z"/>
<path d="M4540 295 c-29 -35 19 -70 52 -38 18 19 18 21 3 37 -20 20 -39 21
-55 1z"/>
</g>
</svg>
