<?xml version="1.0" standalone="no"?>
<!DOCTYPE svg PUBLIC "-//W3C//DTD SVG 20010904//EN"
 "http://www.w3.org/TR/2001/REC-SVG-20010904/DTD/svg10.dtd">
<svg version="1.0" xmlns="http://www.w3.org/2000/svg"
 width="286.000000pt" height="112.000000pt" viewBox="0 0 286.000000 112.000000"
 preserveAspectRatio="xMidYMid meet">
<metadata>
Created by potrace 1.16, written by Peter Selinger 2001-2019
</metadata>
<g transform="translate(0.000000,112.000000) scale(0.100000,-0.100000)"
fill="#000000" stroke="none">
<path d="M562 845 c-11 -24 -15 -25 -124 -27 -62 -1 -137 -1 -166 0 -41 3 -52
0 -52 -12 0 -10 12 -16 37 -18 30 -2 39 -8 44 -28 9 -33 11 -247 3 -343 l-7
-76 -38 -15 c-35 -14 -56 -32 -47 -41 2 -3 31 7 64 20 40 17 79 25 122 25 47
0 62 3 62 14 0 9 -12 16 -32 18 l-33 3 -3 74 -3 73 58 -7 c66 -8 73 -11 73
-31 0 -30 19 -12 25 24 4 20 9 49 11 65 6 30 -2 33 -30 12 -12 -9 -42 -15 -78
-15 l-59 0 3 108 3 107 53 -1 c60 -2 92 -23 92 -61 0 -47 25 -17 31 38 4 30
11 66 17 80 17 43 -7 56 -26 14z"/>
<path d="M1770 850 c-11 -11 -20 -24 -20 -30 0 -6 -36 -10 -89 -10 -78 0 -95
-3 -142 -28 -77 -40 -112 -99 -112 -190 0 -141 75 -214 221 -216 l73 0 -6 -34
c-5 -26 -3 -33 7 -30 7 3 14 13 16 24 1 10 15 45 29 76 29 63 25 86 -8 44 -47
-60 -127 -74 -177 -31 -42 35 -63 96 -64 180 0 90 26 148 77 172 49 23 109 5
137 -43 11 -19 23 -32 28 -29 4 2 10 28 14 56 5 36 14 58 32 74 14 13 21 26
15 29 -6 4 -19 -2 -31 -14z"/>
<path d="M1103 840 c-69 -6 -85 -14 -59 -33 24 -18 32 -150 18 -307 -6 -63 -7
-118 -3 -123 9 -9 111 20 111 32 0 5 -9 11 -20 14 -18 5 -20 14 -20 77 0 66 2
74 29 101 63 63 131 19 131 -84 0 -29 -10 -64 -30 -103 -16 -32 -27 -60 -26
-62 2 -2 21 12 42 30 47 41 94 139 94 194 0 102 -106 141 -201 73 l-31 -22 3
92 c3 64 8 94 18 100 27 17 4 26 -56 21z"/>
<path d="M630 780 l-25 -19 24 -25 c22 -24 25 -24 52 -10 33 17 37 34 11 57
-23 21 -31 21 -62 -3z"/>
<path d="M2170 780 l-25 -19 24 -25 c22 -24 25 -24 52 -10 33 17 37 34 11 57
-23 21 -31 21 -62 -3z"/>
<path d="M873 677 c-53 -10 -113 -64 -113 -99 0 -35 25 -54 94 -72 71 -18 96
-38 80 -64 -19 -28 -92 -21 -120 12 l-23 26 -17 -25 c-12 -19 -24 -25 -43 -23
l-26 3 0 123 c0 138 -1 140 -77 101 l-40 -21 22 -15 c22 -16 23 -20 17 -124
-8 -127 -2 -136 69 -114 36 11 42 10 37 -1 -6 -15 12 -19 21 -5 3 5 34 6 69 4
50 -4 71 -1 103 15 44 23 69 47 78 79 10 31 -30 70 -80 79 -83 15 -122 58 -75
83 27 15 78 -5 85 -32 5 -21 5 -21 26 -2 26 23 44 55 36 62 -12 12 -84 18
-123 10z"/>
<path d="M1945 680 c-94 -20 -147 -83 -147 -172 0 -115 102 -165 208 -103 124
73 141 246 27 270 -51 11 -58 11 -88 5z m48 -54 c46 -43 56 -136 19 -178 -23
-27 -74 -23 -105 8 -46 45 -48 125 -5 172 28 28 59 28 91 -2z"/>
<path d="M2166 659 l-38 -21 22 -15 c22 -16 23 -20 17 -124 -6 -94 -4 -110 10
-117 18 -10 70 1 116 24 38 20 34 31 -10 30 l-38 -1 0 123 c0 138 -2 141 -79
101z"/>
<path d="M2328 659 c-39 -20 -50 -39 -23 -39 29 0 38 -40 32 -148 l-5 -104 27
7 c41 9 81 27 81 35 0 4 -7 10 -15 14 -11 4 -15 22 -15 75 0 59 4 74 23 97 27
31 70 35 95 10 14 -14 17 -37 17 -119 -1 -106 5 -121 40 -111 43 13 115 47
115 54 0 5 -18 6 -40 3 l-40 -6 0 107 c0 125 -11 146 -81 146 -44 0 -72 -11
-106 -43 l-23 -20 0 31 c0 27 -4 32 -22 32 -13 -1 -40 -10 -60 -21z"/>
</g>
</svg>
