<?xml version="1.0" standalone="no"?>
<!DOCTYPE svg PUBLIC "-//W3C//DTD SVG 20010904//EN"
 "http://www.w3.org/TR/2001/REC-SVG-20010904/DTD/svg10.dtd">
<svg version="1.0" xmlns="http://www.w3.org/2000/svg"
 width="336.000000pt" height="100.000000pt" viewBox="0 0 336.000000 100.000000"
 preserveAspectRatio="xMidYMid meet">
<metadata>
Created by potrace 1.16, written by Peter Selinger 2001-2019
</metadata>
<g transform="translate(0.000000,100.000000) scale(0.100000,-0.100000)"
fill="#000000" stroke="none">
<path d="M913 730 c-69 -6 -85 -14 -59 -33 24 -18 32 -150 18 -307 -6 -63 -7
-118 -3 -123 9 -9 111 20 111 32 0 5 -9 11 -20 14 -18 5 -20 14 -20 77 0 66 2
74 29 101 63 63 131 19 131 -84 0 -29 -10 -64 -30 -103 -16 -32 -27 -60 -26
-62 2 -2 21 12 42 30 47 41 94 139 94 194 0 102 -106 141 -201 73 l-31 -22 3
92 c3 64 8 94 18 100 27 17 4 26 -56 21z"/>
<path d="M328 705 c-57 -30 -78 -58 -78 -105 0 -26 -7 -43 -25 -60 -32 -30
-32 -40 2 -40 l26 0 -6 -127 c-5 -94 -11 -131 -23 -144 -27 -30 0 -29 55 2 42
24 51 34 44 47 -9 18 -11 207 -3 215 3 3 30 7 60 9 l55 3 0 -113 c0 -131 4
-137 74 -116 25 8 47 14 48 14 1 0 0 -7 -3 -15 -6 -16 11 -21 20 -6 3 5 34 6
69 4 50 -4 71 -1 103 15 44 23 69 47 78 79 10 31 -30 70 -80 79 -57 10 -94 32
-94 54 0 46 91 44 104 -3 6 -21 7 -21 36 11 35 38 37 48 9 57 -91 29 -219 -29
-219 -100 0 -32 27 -51 94 -69 71 -18 96 -38 80 -64 -19 -28 -92 -21 -120 11
l-22 25 -21 -24 c-15 -18 -30 -24 -49 -22 l-27 3 0 123 0 124 -30 -7 c-16 -4
-60 -9 -97 -12 l-68 -5 0 44 c0 24 6 54 13 68 14 28 50 38 66 18 6 -7 22 -28
37 -45 25 -32 26 -32 55 -18 34 18 37 35 9 60 -11 10 -17 21 -14 26 8 13 -32
29 -73 29 -21 -1 -59 -12 -85 -25z"/>
<path d="M2495 719 c-4 -6 1 -16 10 -23 15 -11 17 -33 13 -214 l-3 -202 27
-11 c21 -9 37 -6 88 15 l63 25 27 -21 c91 -67 260 44 260 171 -1 74 -44 112
-129 113 -71 0 -138 -38 -168 -96 -16 -30 -20 -97 -9 -132 5 -18 2 -23 -19
-28 -14 -4 -35 -1 -47 5 -20 11 -21 16 -16 192 4 152 7 182 21 192 10 7 17 15
17 19 0 11 -128 7 -135 -5z m368 -203 c46 -43 56 -136 19 -178 -23 -27 -74
-23 -105 8 -46 45 -48 125 -5 172 28 28 59 28 91 -2z"/>
<path d="M3005 719 c-4 -6 1 -16 10 -23 15 -11 17 -33 13 -214 l-3 -202 25
-10 c19 -8 36 -7 67 4 62 22 104 46 98 56 -3 4 -19 1 -36 -7 -25 -12 -36 -13
-56 -4 l-26 12 5 181 c4 153 7 183 21 193 10 7 17 15 17 19 0 11 -128 7 -135
-5z"/>
<path d="M1870 670 l-25 -19 24 -25 c22 -24 25 -24 52 -10 33 17 37 34 11 57
-23 21 -31 21 -62 -3z"/>
<path d="M1635 570 c-95 -21 -148 -83 -147 -176 0 -50 -1 -53 -30 -63 -41 -15
-54 -14 -94 5 -65 31 -86 127 -40 180 22 26 25 27 55 15 17 -8 36 -21 40 -30
8 -14 13 -13 35 8 46 43 30 61 -50 61 -88 0 -156 -50 -172 -126 -32 -149 100
-229 230 -140 l34 23 32 -28 c67 -60 182 -27 243 69 54 85 31 181 -48 197 -51
11 -58 11 -88 5z m48 -54 c46 -43 56 -136 19 -178 -23 -27 -74 -23 -105 8 -46
45 -48 125 -5 172 28 28 59 28 91 -2z"/>
<path d="M1866 549 l-38 -21 22 -15 c22 -16 23 -20 17 -124 -6 -94 -4 -110 10
-117 18 -10 70 1 116 24 26 14 27 14 27 -12 0 -23 3 -26 28 -20 71 17 99 37
67 50 -11 4 -15 22 -15 75 0 59 4 74 23 97 27 31 70 35 95 10 14 -14 17 -37
17 -119 -1 -106 5 -121 40 -111 43 13 115 47 115 54 0 5 -18 6 -40 3 l-40 -6
0 107 c0 125 -11 146 -81 146 -44 0 -72 -11 -106 -43 l-23 -20 0 31 c0 39 -21
42 -80 12 -40 -21 -52 -40 -25 -40 24 0 35 -35 35 -109 l0 -70 -36 -7 c-20 -4
-40 -2 -46 4 -6 6 -9 54 -7 126 4 111 3 116 -16 116 -11 -1 -37 -10 -59 -21z"/>
<path d="M2406 309 c-22 -17 -24 -24 -15 -36 26 -30 46 -33 74 -12 l26 21 -22
24 c-27 29 -30 29 -63 3z"/>
</g>
</svg>
