<?xml version="1.0" standalone="no"?>
<!DOCTYPE svg PUBLIC "-//W3C//DTD SVG 20010904//EN"
 "http://www.w3.org/TR/2001/REC-SVG-20010904/DTD/svg10.dtd">
<svg version="1.0" xmlns="http://www.w3.org/2000/svg"
 width="532.000000pt" height="330.000000pt" viewBox="0 0 532.000000 330.000000"
 preserveAspectRatio="xMidYMid meet">
<metadata>
Created by potrace 1.16, written by Peter Selinger 2001-2019
</metadata>
<g transform="translate(0.000000,330.000000) scale(0.100000,-0.100000)"
fill="#000000" stroke="none">
<path d="M2356 3208 c-9 -12 -16 -28 -16 -36 0 -10 -10 -11 -47 -5 -117 20
-217 -10 -282 -83 -65 -74 -78 -162 -37 -251 32 -68 90 -103 181 -111 82 -6
141 15 189 68 87 97 45 180 -92 180 -103 0 -166 -37 -144 -85 9 -20 19 -25 49
-25 50 0 70 12 48 30 -22 19 -18 39 11 52 24 11 29 9 55 -20 61 -68 20 -172
-68 -172 -50 0 -104 37 -129 87 -10 21 -20 68 -22 104 -7 119 50 199 142 199
31 0 45 -7 77 -39 22 -21 39 -48 39 -61 0 -42 25 -14 31 36 8 56 23 99 38 109
14 8 14 45 2 45 -6 0 -17 -10 -25 -22z"/>
<path d="M4857 3203 c-3 -5 -12 -34 -20 -66 -14 -54 -14 -58 1 -55 17 3 71 91
72 116 0 13 -46 17 -53 5z"/>
<path d="M860 3187 c-36 -4 -95 -10 -132 -13 -38 -3 -68 -10 -68 -15 0 -5 11
-9 25 -9 20 0 25 -5 25 -24 0 -31 -42 -166 -76 -242 l-26 -59 -13 31 c-16 39
-61 197 -70 247 -7 34 -5 39 14 44 47 12 16 23 -64 23 -78 0 -111 -11 -67 -22
11 -3 23 -26 35 -71 l17 -66 -26 -73 c-41 -115 -44 -118 -61 -77 -15 36 -83
264 -83 280 0 5 9 9 20 9 11 0 20 5 20 10 0 6 -33 10 -80 10 -47 0 -80 -4 -80
-10 0 -5 6 -10 14 -10 10 0 30 -48 61 -147 68 -220 90 -278 105 -278 16 0 63
77 98 162 14 35 28 60 31 57 3 -3 22 -53 42 -112 23 -69 41 -107 50 -107 16 0
68 94 155 285 35 78 68 136 77 138 24 5 32 -92 20 -263 -6 -82 -8 -153 -4
-158 9 -9 111 21 111 32 0 5 -9 11 -20 14 -18 5 -20 14 -20 77 0 66 2 74 29
101 63 63 131 19 131 -84 0 -29 -10 -64 -30 -103 -16 -32 -27 -60 -26 -62 2
-2 21 12 42 30 47 41 94 139 94 194 0 102 -106 141 -201 73 l-31 -22 3 92 c3
64 8 94 18 100 29 18 3 26 -59 18z"/>
<path d="M3584 3179 c-4 -7 1 -16 10 -21 14 -8 16 -32 16 -187 0 -193 1 -191
-56 -191 -24 0 -24 1 -24 105 0 124 -12 145 -81 145 -44 0 -72 -11 -106 -43
l-23 -20 0 31 c0 40 -21 42 -90 7 -59 -30 -60 -30 -60 -6 0 29 -52 44 -104 30
-86 -23 -126 -73 -128 -163 l-1 -54 -48 -15 c-35 -12 -56 -13 -83 -6 -34 9
-76 50 -76 74 0 6 39 29 88 49 48 21 97 44 110 52 26 17 30 39 5 29 -10 -4
-24 -9 -30 -12 -8 -3 -13 3 -13 15 0 43 -97 48 -164 8 -27 -16 -62 -13 -85 8
-26 24 -49 20 -81 -14 l-28 -30 -7 29 c-9 41 -26 44 -84 14 -47 -23 -59 -43
-26 -43 27 0 37 -40 34 -143 -2 -71 1 -102 9 -105 15 -5 102 28 102 38 0 4 -9
10 -20 13 -17 4 -20 14 -20 56 0 51 19 113 38 124 5 4 23 1 41 -6 24 -9 36 -9
51 1 25 15 33 15 24 0 -14 -22 -21 -101 -13 -133 27 -95 148 -117 241 -44 l38
30 27 -31 c52 -58 146 -57 217 2 21 17 35 32 32 35 -2 2 -24 -2 -49 -11 -34
-11 -54 -13 -80 -5 -35 9 -77 50 -77 73 0 7 48 34 107 59 136 60 137 60 130
-96 l-5 -109 27 7 c41 9 81 27 81 35 0 4 -7 10 -15 14 -11 4 -15 22 -15 75 0
59 4 74 23 97 27 31 70 35 95 10 14 -14 17 -37 17 -121 -1 -80 2 -106 13 -110
8 -3 40 6 73 19 42 17 59 20 59 11 0 -7 13 -18 28 -24 24 -10 38 -9 80 7 44
17 53 18 63 6 6 -8 26 -14 43 -14 34 0 109 31 120 49 12 19 24 12 31 -18 9
-41 32 -46 88 -16 27 14 51 25 53 25 2 0 4 -12 4 -26 0 -23 3 -25 28 -20 71
17 99 37 67 50 -11 4 -15 22 -15 75 0 59 4 74 23 97 27 31 70 35 95 10 14 -14
17 -37 17 -121 -1 -80 2 -106 13 -110 7 -3 42 7 78 21 l64 25 22 -20 c32 -31
93 -31 146 -1 32 19 32 19 32 -1 0 -11 7 -22 16 -26 16 -6 140 42 150 59 10
16 -1 18 -35 5 -29 -11 -34 -10 -47 7 -25 35 -13 365 14 374 31 10 6 22 -45
22 -76 0 -93 -10 -64 -39 16 -16 21 -33 21 -71 l0 -50 -48 0 c-56 0 -127 -32
-155 -71 -25 -35 -37 -92 -27 -133 9 -41 6 -46 -32 -46 l-28 0 0 105 c0 124
-12 145 -81 145 -44 0 -72 -11 -106 -43 l-23 -20 0 31 c0 39 -21 42 -80 12
-40 -21 -52 -40 -25 -40 23 0 35 -34 35 -103 0 -62 -1 -65 -29 -77 -17 -6 -34
-9 -40 -6 -14 9 -28 67 -36 148 -9 88 -19 101 -79 100 -62 -2 -158 -44 -150
-66 8 -21 20 -20 44 4 11 11 31 20 44 20 25 0 56 -32 56 -57 0 -7 -33 -29 -72
-49 -86 -43 -108 -60 -108 -86 0 -24 -23 -33 -51 -18 -21 12 -22 14 -17 193 4
152 7 182 21 192 10 7 17 15 17 19 0 11 -129 6 -136 -5z m-774 -194 c18 -22 6
-42 -40 -65 l-40 -20 0 20 c0 33 29 80 49 80 10 0 24 -7 31 -15z m280 0 c18
-22 6 -42 -40 -65 l-40 -20 0 20 c0 33 29 80 49 80 10 0 24 -7 31 -15z m1575
-10 c21 -20 25 -34 25 -79 0 -73 -13 -104 -46 -112 -84 -21 -153 128 -89 191
15 16 36 25 55 25 19 0 40 -9 55 -25z m-721 -101 c15 -38 6 -62 -29 -79 -41
-19 -63 -17 -79 7 -13 21 14 54 59 74 39 17 42 17 49 -2z"/>
<path d="M1290 3028 c-74 -21 -109 -61 -121 -137 -17 -113 62 -186 170 -159
37 9 117 65 107 75 -2 2 -24 -2 -49 -11 -34 -11 -54 -13 -80 -5 -35 9 -77 50
-77 73 0 7 48 34 107 59 136 60 137 60 130 -96 l-5 -109 27 7 c41 9 81 27 81
35 0 4 -7 10 -15 14 -11 4 -15 22 -15 75 0 59 4 74 23 97 27 31 70 35 95 10
14 -14 17 -37 17 -119 -1 -106 5 -121 40 -111 43 13 115 47 115 54 0 5 -18 6
-40 3 l-40 -6 0 107 c0 125 -11 146 -81 146 -44 0 -72 -11 -106 -43 l-23 -20
0 31 c0 40 -21 42 -90 7 -59 -30 -60 -30 -60 -6 0 12 -11 23 -31 30 -36 12
-32 13 -79 -1z m30 -43 c18 -22 6 -42 -40 -65 l-40 -20 0 20 c0 33 29 80 49
80 10 0 24 -7 31 -15z"/>
<path d="M5063 3027 c-53 -10 -113 -64 -113 -99 0 -35 25 -54 94 -72 71 -18
96 -38 80 -64 -19 -28 -92 -21 -120 12 l-23 26 -26 -41 c-15 -22 -29 -47 -32
-55 -6 -15 12 -20 21 -5 3 5 34 6 69 4 50 -4 71 -1 103 15 44 23 69 47 78 79
10 31 -30 70 -80 79 -83 15 -122 58 -75 83 27 15 78 -5 85 -32 5 -21 5 -21 26
-2 26 23 44 55 36 62 -12 12 -84 18 -123 10z"/>
<path d="M1383 2360 c-69 -6 -85 -14 -59 -33 24 -18 32 -150 18 -307 -6 -63
-7 -118 -3 -123 9 -9 111 20 111 32 0 5 -9 11 -20 14 -18 5 -20 14 -20 77 0
66 2 74 29 101 63 63 131 19 131 -84 0 -29 -10 -64 -30 -103 -16 -32 -27 -60
-26 -62 2 -2 21 12 42 30 47 41 94 139 94 194 0 102 -106 141 -201 73 l-31
-22 3 92 c3 64 8 94 18 100 27 17 4 26 -56 21z"/>
<path d="M3495 2349 c-4 -6 1 -16 10 -23 15 -11 17 -33 13 -214 l-3 -202 26
-11 c22 -9 38 -6 93 16 65 26 66 26 87 6 43 -40 101 -35 181 15 64 41 66 68 2
32 -72 -39 -144 5 -144 89 0 68 12 83 68 83 44 0 123 27 135 46 3 5 -40 9 -95
10 -84 0 -103 3 -114 18 -8 12 -17 15 -26 9 -35 -21 -108 -77 -108 -83 0 -4
25 -5 56 -2 l56 5 -22 -43 c-12 -23 -23 -65 -24 -93 -2 -43 -6 -52 -27 -59
-15 -6 -33 -5 -48 2 l-24 11 5 181 c4 153 7 183 21 193 10 7 17 15 17 19 0 11
-128 7 -135 -5z"/>
<path d="M230 2300 l-25 -19 24 -25 c22 -24 25 -24 52 -10 33 17 37 34 11 57
-23 21 -31 21 -62 -3z"/>
<path d="M2270 2190 c-63 -45 -70 -47 -70 -21 0 29 -52 44 -104 30 -86 -23
-126 -73 -128 -163 l-1 -54 -48 -15 c-35 -12 -56 -13 -83 -6 -34 9 -76 50 -76
74 0 6 39 29 88 49 48 21 97 44 110 52 26 17 30 39 5 29 -10 -4 -24 -9 -30
-12 -8 -3 -13 3 -13 15 0 47 -106 47 -172 0 -35 -25 -50 -52 -59 -107 -22
-148 120 -218 243 -120 l38 30 27 -31 c52 -58 146 -57 217 2 21 17 35 32 32
35 -2 2 -24 -2 -49 -11 -34 -11 -54 -13 -80 -5 -35 9 -77 50 -77 74 0 16 208
105 248 105 l32 0 -18 -37 c-46 -91 -32 -166 35 -198 30 -15 42 -15 76 -5 43
13 111 52 122 70 13 21 -2 20 -41 -2 -72 -39 -144 5 -144 89 0 68 12 83 68 83
44 0 123 27 135 46 3 5 -40 9 -95 10 -82 0 -103 4 -113 17 -7 9 -14 17 -16 17
-2 0 -29 -18 -59 -40z m-430 -35 c18 -22 6 -42 -40 -65 l-40 -20 0 20 c0 33
29 80 49 80 10 0 24 -7 31 -15z m280 0 c18 -22 6 -42 -40 -65 l-40 -20 0 20
c0 33 29 80 49 80 10 0 24 -7 31 -15z"/>
<path d="M750 2198 c-81 -23 -120 -75 -122 -164 -2 -54 -3 -57 -34 -70 -43
-18 -58 -18 -100 2 -65 31 -86 127 -40 180 22 26 25 27 55 15 17 -8 36 -21 40
-30 8 -14 13 -13 35 8 33 31 33 49 0 57 -79 20 -179 -20 -210 -85 -15 -31 -21
-104 -13 -141 3 -11 -4 -15 -26 -15 l-30 0 0 123 c0 138 -1 140 -77 101 l-40
-21 22 -15 c22 -16 23 -20 17 -124 -6 -94 -4 -110 10 -117 18 -10 70 1 116 25
26 13 31 13 47 -2 45 -41 125 -37 195 11 l38 25 27 -26 c55 -53 145 -50 214 7
21 17 35 32 32 35 -2 2 -24 -2 -49 -11 -34 -11 -54 -13 -80 -5 -35 9 -77 50
-77 74 0 6 39 29 88 49 48 21 97 44 110 52 25 16 30 40 7 30 -8 -3 -22 -9 -30
-12 -10 -4 -15 0 -15 14 0 13 -10 24 -31 31 -36 12 -32 13 -79 -1z m30 -43
c18 -22 6 -42 -40 -65 l-40 -20 0 20 c0 33 29 80 49 80 10 0 24 -7 31 -15z"/>
<path d="M1153 2197 c-53 -10 -113 -64 -113 -99 0 -35 25 -54 94 -72 71 -18
96 -38 80 -64 -19 -28 -92 -21 -120 12 l-23 26 -26 -41 c-15 -22 -29 -47 -32
-55 -6 -15 12 -20 21 -5 3 5 34 6 69 4 50 -4 71 -1 103 15 44 23 69 47 78 79
10 31 -30 70 -80 79 -83 15 -122 58 -75 83 27 15 78 -5 85 -32 5 -21 5 -21 26
-2 26 23 44 55 36 62 -12 12 -84 18 -123 10z"/>
<path d="M2851 2199 c-13 -5 -36 -18 -51 -29 l-29 -20 -3 22 c-4 31 -43 34
-85 8 -38 -23 -42 -35 -12 -43 19 -5 20 -12 18 -124 l-2 -118 34 3 c42 3 94
34 67 40 -24 5 -32 41 -25 109 9 82 54 120 100 83 21 -17 22 -26 21 -129 -2
-124 -3 -122 66 -95 40 16 53 34 25 34 -32 0 -30 146 2 183 24 26 69 22 89 -8
13 -20 15 -45 13 -122 -5 -117 -1 -120 95 -75 63 30 64 30 83 10 27 -27 84
-38 132 -26 37 9 117 65 107 75 -2 2 -24 -2 -49 -11 -34 -11 -54 -13 -80 -5
-35 9 -77 50 -77 74 0 6 39 29 88 49 48 21 97 44 110 52 25 16 30 40 7 30 -8
-3 -22 -9 -30 -12 -10 -4 -15 0 -15 14 0 13 -10 24 -31 31 -59 21 -154 -20
-184 -79 -16 -31 -23 -113 -12 -145 6 -18 2 -21 -28 -23 -46 -3 -54 18 -48
115 7 94 0 119 -37 131 -37 13 -80 2 -125 -32 l-33 -25 -6 25 c-4 14 -18 29
-32 34 -30 12 -32 12 -63 -1z m519 -44 c18 -22 6 -42 -40 -65 l-40 -20 0 20
c0 33 29 80 49 80 10 0 24 -7 31 -15z"/>
<path d="M4063 2197 c-53 -10 -113 -64 -113 -99 0 -35 25 -54 94 -72 71 -18
96 -38 80 -64 -19 -28 -92 -21 -120 12 l-23 26 -26 -41 c-15 -22 -29 -47 -32
-55 -6 -15 12 -20 21 -5 3 5 34 6 69 4 50 -4 71 -1 103 15 44 23 69 47 78 79
10 31 -30 70 -80 79 -83 15 -122 58 -75 83 27 15 78 -5 85 -32 5 -21 5 -21 26
-2 26 23 44 55 36 62 -12 12 -84 18 -123 10z"/>
<path d="M4252 1944 c-17 -11 -21 -21 -16 -37 5 -16 0 -26 -21 -43 -46 -36
-12 -35 43 1 63 43 68 51 46 76 -21 23 -23 23 -52 3z"/>
<path d="M1267 1553 c-3 -5 -12 -34 -20 -66 -14 -54 -14 -58 1 -55 17 3 71 91
72 116 0 13 -46 17 -53 5z"/>
<path d="M235 1376 c-16 -8 -39 -21 -50 -30 -18 -14 -18 -15 -3 -16 10 0 28
-17 41 -37 30 -49 87 -186 87 -210 0 -10 -27 -55 -59 -100 -33 -45 -57 -84
-53 -87 9 -10 38 -7 91 11 51 16 73 41 26 29 -49 -13 -26 46 96 241 105 167
115 189 92 201 -9 5 -23 8 -32 6 -9 -1 -33 -6 -53 -9 -43 -7 -52 -25 -13 -25
25 0 29 -7 25 -45 -2 -25 -50 -135 -59 -135 -3 0 -21 41 -40 91 -19 50 -41 99
-50 109 -14 17 -19 18 -46 6z"/>
<path d="M665 1380 c-94 -20 -147 -83 -147 -172 0 -115 102 -165 208 -103 124
73 141 246 27 270 -51 11 -58 11 -88 5z m48 -54 c46 -43 56 -136 19 -178 -23
-27 -74 -23 -105 8 -46 45 -48 125 -5 172 28 28 59 28 91 -2z"/>
<path d="M1381 1363 c-47 -23 -59 -43 -26 -43 27 0 37 -40 34 -143 -2 -71 1
-102 9 -105 15 -5 102 28 102 38 0 4 -9 10 -20 13 -17 4 -20 14 -20 56 0 51
19 113 38 124 5 4 23 1 41 -6 24 -9 36 -9 51 1 25 15 33 15 24 0 -14 -22 -21
-101 -13 -133 18 -66 92 -102 168 -83 37 9 117 65 107 75 -2 2 -24 -2 -49 -11
-34 -11 -54 -13 -80 -5 -35 9 -77 50 -77 74 0 6 39 29 88 49 48 21 97 44 110
52 25 16 30 40 7 30 -8 -3 -22 -9 -30 -12 -10 -4 -15 0 -15 14 0 43 -97 48
-164 8 -27 -16 -62 -13 -85 8 -26 24 -49 20 -81 -14 l-28 -30 -7 29 c-9 41
-26 44 -84 14z m369 -28 c18 -22 6 -42 -40 -65 l-40 -20 0 20 c0 33 29 80 49
80 10 0 24 -7 31 -15z"/>
<path d="M2505 1380 c-16 -4 -40 -12 -52 -18 -26 -14 -157 -9 -209 8 -47 16
-126 7 -169 -20 -66 -41 -81 -132 -30 -180 19 -18 33 -21 74 -19 46 4 50 2 45
-17 -4 -16 4 -27 36 -49 71 -50 87 -88 50 -125 -28 -28 -108 -28 -144 1 -33
26 -33 46 0 80 47 49 9 39 -50 -14 -67 -60 -70 -80 -17 -111 108 -63 301 21
301 131 0 28 -8 38 -55 73 -30 22 -55 43 -55 46 0 3 10 24 22 47 12 23 24 56
28 72 5 27 10 31 57 36 28 4 56 10 62 13 6 4 0 -9 -14 -30 -33 -49 -38 -127
-9 -171 56 -88 196 -64 265 45 54 85 31 181 -48 197 -51 11 -58 11 -88 5z
m-316 -56 c23 -29 28 -83 11 -115 -26 -48 -110 4 -110 69 0 68 60 96 99 46z
m364 2 c46 -43 56 -136 19 -178 -23 -27 -74 -23 -105 8 -46 45 -48 125 -5 172
28 28 59 28 91 -2z"/>
<path d="M3593 1379 c-60 -11 -124 -46 -117 -64 8 -20 20 -19 44 5 11 11 31
20 44 20 25 0 56 -32 56 -57 0 -7 -33 -29 -72 -49 -86 -42 -108 -60 -108 -86
0 -13 -7 -18 -25 -18 l-25 0 0 105 c0 124 -12 145 -81 145 -44 0 -72 -11 -106
-43 l-23 -20 0 31 c0 39 -21 42 -80 12 -40 -21 -52 -40 -25 -40 29 0 38 -40
32 -148 l-5 -104 27 7 c41 9 81 27 81 35 0 4 -7 10 -15 14 -11 4 -15 22 -15
75 0 59 4 74 23 97 27 31 70 35 95 10 14 -14 17 -37 17 -121 -1 -78 2 -106 12
-110 8 -2 37 4 65 15 46 17 54 18 68 5 9 -8 30 -15 46 -15 32 0 108 32 118 49
12 19 24 12 31 -18 3 -16 14 -32 23 -36 19 -7 124 45 130 65 3 9 -1 11 -14 5
-61 -25 -70 -14 -85 107 -5 46 -14 93 -19 104 -10 25 -40 32 -97 23z m41 -155
c15 -38 6 -62 -29 -79 -41 -19 -63 -17 -79 7 -13 21 14 54 59 74 39 17 42 17
49 -2z"/>
<path d="M898 1362 c-57 -21 -65 -28 -39 -37 28 -9 34 -35 26 -123 -6 -70 -4
-79 15 -99 27 -29 91 -31 144 -3 41 20 56 19 56 -6 0 -19 36 -17 86 5 54 24
69 46 26 36 -46 -10 -54 14 -46 140 8 117 7 119 -65 94 -32 -11 -40 -24 -18
-31 8 -3 12 -30 12 -87 0 -76 -2 -84 -24 -102 -31 -25 -67 -18 -100 18 -22 26
-23 31 -17 120 4 51 4 93 -1 92 -4 0 -29 -8 -55 -17z"/>
<path d="M2718 1359 c-39 -20 -50 -39 -23 -39 29 0 38 -40 32 -148 l-5 -104
27 7 c41 9 81 27 81 35 0 4 -7 10 -15 14 -11 4 -15 22 -15 75 0 59 4 74 23 97
27 31 70 35 95 10 14 -14 17 -37 17 -119 -1 -106 5 -121 40 -111 43 13 115 47
115 54 0 5 -18 6 -40 3 l-40 -6 0 107 c0 125 -11 146 -81 146 -44 0 -72 -11
-106 -43 l-23 -20 0 31 c0 27 -4 32 -22 32 -13 -1 -40 -10 -60 -21z"/>
<path d="M2402 715 c-11 -24 -15 -25 -124 -27 -62 -1 -137 -1 -165 0 -42 3
-53 0 -53 -12 0 -10 12 -16 37 -18 30 -2 39 -8 44 -28 9 -33 11 -247 3 -343
l-7 -76 -38 -15 c-35 -14 -56 -32 -47 -41 2 -3 31 7 64 20 40 17 79 25 122 25
47 0 62 3 62 14 0 9 -12 16 -32 18 l-33 3 -3 74 -3 73 58 -7 c66 -8 73 -11 73
-31 0 -30 19 -12 25 24 4 20 9 49 11 65 6 30 -2 33 -30 12 -12 -9 -42 -15 -78
-15 l-59 0 3 108 3 107 53 -1 c60 -2 92 -23 92 -61 0 -47 25 -17 31 38 4 30
11 66 17 80 17 43 -7 56 -26 14z"/>
<path d="M3620 720 c-11 -11 -20 -24 -20 -30 0 -6 -36 -10 -89 -10 -78 0 -95
-3 -142 -28 -77 -40 -112 -99 -112 -190 0 -141 75 -214 221 -216 l73 0 -6 -34
c-5 -26 -3 -33 7 -30 7 3 14 13 16 24 1 10 15 45 29 76 29 63 25 86 -8 44 -47
-60 -127 -74 -177 -31 -42 35 -63 96 -64 180 0 90 26 148 77 172 49 23 109 5
137 -43 11 -19 23 -32 28 -29 4 2 10 28 14 56 5 36 14 58 32 74 14 13 21 26
15 29 -6 4 -19 -2 -31 -14z"/>
<path d="M2953 710 c-69 -6 -85 -14 -59 -33 24 -18 32 -150 18 -307 -6 -63 -7
-118 -3 -123 9 -9 111 20 111 32 0 5 -9 11 -20 14 -18 5 -20 14 -20 77 0 66 2
74 29 101 63 63 131 19 131 -84 0 -29 -10 -64 -30 -103 -16 -32 -27 -60 -26
-62 2 -2 21 12 42 30 47 41 94 139 94 194 0 102 -106 141 -201 73 l-31 -22 3
92 c3 64 8 94 18 100 27 17 4 26 -56 21z"/>
<path d="M1331 701 c-11 -7 -9 -13 8 -30 16 -16 21 -33 21 -71 l0 -50 -45 0
c-112 0 -187 -69 -187 -171 l0 -47 -48 -15 c-36 -12 -57 -13 -84 -6 -34 9 -76
50 -76 74 0 6 39 29 88 49 48 21 97 44 110 52 25 16 30 40 7 30 -8 -3 -22 -9
-30 -12 -10 -4 -15 0 -15 14 0 30 -51 45 -104 31 -86 -23 -126 -73 -128 -163
l-1 -54 -48 -15 c-35 -12 -56 -13 -83 -6 -34 9 -76 50 -76 74 0 6 39 29 88 49
48 21 97 44 110 52 26 17 30 39 5 29 -10 -4 -24 -9 -30 -12 -8 -3 -13 3 -13
15 0 13 -10 24 -31 31 -60 21 -154 -20 -184 -80 -15 -27 -22 -115 -14 -149 3
-11 -5 -16 -29 -18 l-32 -3 0 105 c0 125 -11 146 -81 146 -44 0 -72 -11 -106
-43 l-23 -20 0 31 c0 39 -21 42 -80 12 -40 -21 -52 -40 -25 -40 29 0 38 -40
32 -148 l-5 -104 27 7 c41 9 81 27 81 35 0 4 -7 10 -15 14 -11 4 -15 22 -15
75 0 59 4 74 23 97 27 31 70 35 95 10 14 -14 17 -37 17 -121 -1 -80 2 -106 13
-110 7 -3 43 7 78 21 62 24 66 25 84 9 47 -43 137 -36 202 16 l38 30 27 -31
c53 -58 141 -57 217 2 34 28 40 29 48 14 35 -62 105 -76 176 -36 32 19 32 19
32 -1 0 -11 7 -22 16 -26 16 -6 140 42 150 59 10 16 -1 18 -35 5 -29 -11 -34
-10 -47 7 -25 35 -13 365 14 374 7 2 12 8 12 13 0 11 -110 12 -129 0z m-611
-196 c18 -22 6 -42 -40 -65 l-40 -20 0 20 c0 33 29 80 49 80 10 0 24 -7 31
-15z m280 0 c18 -22 6 -42 -40 -65 l-40 -20 0 20 c0 33 29 80 49 80 10 0 24
-7 31 -15z m335 -10 c21 -20 25 -34 25 -79 0 -73 -13 -104 -46 -112 -84 -21
-153 128 -89 191 15 16 36 25 55 25 19 0 40 -9 55 -25z"/>
<path d="M4588 673 l-28 -4 1 -92 c0 -105 13 -244 23 -255 19 -18 42 94 53
266 5 75 4 92 -8 91 -8 -1 -26 -4 -41 -6z"/>
<path d="M2480 650 l-25 -19 24 -25 c22 -24 25 -24 52 -10 33 17 37 34 11 57
-23 21 -31 21 -62 -3z"/>
<path d="M4020 650 l-25 -19 24 -25 c22 -24 25 -24 52 -10 33 17 37 34 11 57
-23 21 -31 21 -62 -3z"/>
<path d="M1763 549 c-60 -11 -124 -46 -117 -64 8 -20 20 -19 44 5 11 11 31 20
44 20 25 0 56 -32 56 -57 0 -7 -33 -29 -72 -49 -91 -45 -108 -60 -108 -94 0
-34 28 -60 66 -60 32 0 108 32 118 49 12 19 24 12 31 -18 3 -16 14 -32 23 -36
19 -7 124 45 130 65 3 9 -1 11 -14 5 -61 -25 -70 -14 -85 107 -5 46 -14 93
-19 104 -10 25 -40 32 -97 23z m41 -155 c15 -38 6 -62 -29 -79 -41 -19 -63
-17 -79 7 -13 21 14 54 59 74 39 17 42 17 49 -2z"/>
<path d="M2723 547 c-53 -10 -113 -64 -113 -99 0 -35 25 -54 94 -72 71 -18 96
-38 80 -64 -19 -28 -92 -21 -120 12 l-23 26 -17 -25 c-12 -19 -24 -25 -43 -23
l-26 3 0 123 c0 138 -1 140 -77 101 l-40 -21 22 -15 c22 -16 23 -20 17 -124
-8 -127 -2 -136 69 -114 36 11 42 10 37 -1 -6 -15 12 -19 21 -5 3 5 34 6 69 4
50 -4 71 -1 103 15 44 23 69 47 78 79 10 31 -30 70 -80 79 -83 15 -122 58 -75
83 27 15 78 -5 85 -32 5 -21 5 -21 26 -2 26 23 44 55 36 62 -12 12 -84 18
-123 10z"/>
<path d="M3795 550 c-94 -20 -147 -83 -147 -172 0 -115 102 -165 208 -103 124
73 141 246 27 270 -51 11 -58 11 -88 5z m48 -54 c46 -43 56 -136 19 -178 -23
-27 -74 -23 -105 8 -46 45 -48 125 -5 172 28 28 59 28 91 -2z"/>
<path d="M4016 529 l-38 -21 22 -15 c22 -16 23 -20 17 -124 -6 -94 -4 -110 10
-117 18 -10 70 1 116 24 38 20 34 31 -10 30 l-38 -1 0 123 c0 138 -2 141 -79
101z"/>
<path d="M4178 529 c-39 -20 -50 -39 -23 -39 29 0 38 -40 32 -148 l-5 -104 27
7 c41 9 81 27 81 35 0 4 -7 10 -15 14 -11 4 -15 22 -15 75 0 59 4 74 23 97 27
31 70 35 95 10 14 -14 17 -37 17 -119 -1 -106 5 -121 40 -111 43 13 115 47
115 54 0 5 -18 6 -40 3 l-40 -6 0 107 c0 125 -11 146 -81 146 -44 0 -72 -11
-106 -43 l-23 -20 0 31 c0 27 -4 32 -22 32 -13 -1 -40 -10 -60 -21z"/>
<path d="M4560 285 c-29 -35 19 -70 52 -38 18 19 18 21 3 37 -20 20 -39 21
-55 1z"/>
</g>
</svg>
