<?xml version="1.0" standalone="no"?>
<!DOCTYPE svg PUBLIC "-//W3C//DTD SVG 20010904//EN"
 "http://www.w3.org/TR/2001/REC-SVG-20010904/DTD/svg10.dtd">
<svg version="1.0" xmlns="http://www.w3.org/2000/svg"
 width="622.000000pt" height="126.000000pt" viewBox="0 0 622.000000 126.000000"
 preserveAspectRatio="xMidYMid meet">
<metadata>
Created by potrace 1.16, written by Peter Selinger 2001-2019
</metadata>
<g transform="translate(0.000000,126.000000) scale(0.100000,-0.100000)"
fill="#000000" stroke="none">
<path d="M3985 847 c-97 -73 -128 -120 -133 -202 -5 -76 8 -115 50 -150 44
-37 102 -34 164 7 61 41 86 84 86 145 0 41 -5 52 -31 75 -42 38 -103 38 -156
3 -20 -15 -40 -24 -42 -21 -3 3 5 26 18 51 25 49 55 76 104 92 19 6 31 17 33
31 5 34 -16 27 -93 -31z m70 -167 c56 -62 2 -196 -70 -170 -54 19 -85 128 -47
163 41 37 87 40 117 7z"/>
<path d="M515 860 c-85 -20 -138 -73 -155 -157 -22 -105 4 -189 70 -225 69
-38 148 -4 215 91 27 39 30 50 30 119 -1 131 -61 196 -160 172z m49 -60 c31
-38 40 -82 34 -169 -8 -105 -47 -148 -106 -117 -75 39 -86 220 -20 304 19 23
65 14 92 -18z"/>
<path d="M1058 843 c-70 -26 -93 -50 -37 -38 l32 7 -5 -153 c-6 -145 -7 -153
-29 -170 -24 -18 -23 -19 64 -19 88 0 106 7 65 25 -22 10 -23 16 -26 143 -1
74 1 156 6 183 5 27 7 48 3 48 -3 -1 -36 -13 -73 -26z"/>
<path d="M1617 859 c-52 -12 -113 -45 -121 -64 -7 -18 9 -55 24 -55 6 0 10 6
10 14 0 7 9 25 21 40 46 59 129 17 129 -65 0 -48 -41 -103 -135 -182 -39 -32
-71 -62 -73 -66 -3 -10 290 -22 299 -13 4 4 10 27 14 52 l7 45 -25 -23 c-27
-26 -121 -41 -172 -28 -27 7 -27 8 48 77 93 86 123 140 108 197 -18 66 -61 89
-134 71z"/>
<path d="M2170 861 c-46 -10 -80 -29 -80 -44 0 -15 27 -54 32 -47 2 3 8 14 14
25 6 11 23 27 37 35 23 13 28 13 46 -4 25 -23 28 -72 6 -103 -9 -13 -31 -24
-55 -28 -53 -9 -51 -25 4 -25 33 0 49 -6 70 -26 49 -50 24 -144 -38 -144 -25
0 -86 36 -86 50 0 5 -5 10 -11 10 -6 0 -9 -19 -7 -47 l3 -48 47 -3 c94 -6 198
71 198 147 0 31 -6 44 -31 65 -17 14 -40 26 -52 26 -19 0 -18 3 11 31 37 36
43 86 15 112 -22 19 -77 28 -123 18z"/>
<path d="M2855 862 c-6 -4 -30 -34 -54 -67 -25 -33 -73 -95 -109 -137 l-64
-78 106 0 106 0 -7 -42 c-3 -24 -13 -48 -22 -55 -23 -17 -14 -19 69 -12 54 4
69 8 53 13 -13 5 -23 14 -23 21 0 7 -3 27 -6 44 -6 30 -5 31 29 31 30 0 37 4
46 31 16 46 14 49 -16 33 -59 -30 -61 -26 -55 106 l5 120 -24 0 c-13 0 -29 -4
-34 -8z m-18 -229 c-3 -2 -33 -3 -67 -1 l-62 3 63 80 64 79 3 -78 c2 -43 1
-80 -1 -83z"/>
<path d="M3440 863 c-156 -4 -145 4 -146 -103 0 -79 2 -90 15 -84 9 4 35 9 59
12 51 5 86 -20 96 -69 8 -41 -17 -97 -49 -109 -28 -11 -107 10 -113 30 -9 27
-23 5 -20 -32 l3 -43 61 0 c70 0 117 25 160 86 73 106 15 202 -111 183 l-46
-6 3 38 3 39 85 3 c70 2 89 7 107 24 25 24 30 39 11 36 -7 -1 -60 -4 -118 -5z"/>
<path d="M4469 825 c-24 -53 -20 -64 13 -41 15 11 45 16 95 16 40 0 73 -2 73
-5 0 -3 -22 -45 -50 -94 -49 -86 -114 -230 -108 -236 2 -2 24 -1 51 2 43 5 47
8 47 33 0 71 70 243 126 308 19 22 34 42 34 44 0 1 -51 4 -112 6 -62 1 -121 5
-130 8 -14 4 -23 -5 -39 -41z"/>
<path d="M5151 860 c-53 -13 -79 -30 -96 -66 -19 -41 -11 -80 22 -101 l24 -16
-36 -25 c-46 -33 -66 -92 -44 -131 20 -35 62 -54 123 -53 100 1 176 54 176
123 0 45 -21 71 -77 94 l-37 16 31 19 c53 32 70 91 36 123 -23 20 -79 28 -122
17z m54 -44 c21 -32 16 -75 -11 -93 -18 -12 -24 -11 -47 8 -29 22 -35 56 -17
90 15 27 56 24 75 -5z m-8 -181 c50 -30 64 -65 42 -104 -12 -21 -24 -27 -57
-29 -36 -3 -47 1 -73 28 -26 26 -30 36 -25 62 7 37 32 68 54 68 8 0 35 -11 59
-25z"/>
<path d="M5750 858 c-77 -22 -120 -75 -120 -148 0 -61 41 -100 106 -100 30 0
59 7 81 21 l34 21 -7 -28 c-18 -78 -95 -142 -155 -130 -31 6 -36 -3 -19 -35
18 -33 53 -22 126 39 47 40 78 75 97 113 46 91 38 210 -16 237 -34 17 -89 21
-127 10z m51 -28 c26 -15 49 -62 49 -104 0 -44 -41 -80 -80 -71 -70 16 -93
104 -41 156 32 32 42 34 72 19z"/>
</g>
</svg>
