<?xml version="1.0" standalone="no"?>
<!DOCTYPE svg PUBLIC "-//W3C//DTD SVG 20010904//EN"
 "http://www.w3.org/TR/2001/REC-SVG-20010904/DTD/svg10.dtd">
<svg version="1.0" xmlns="http://www.w3.org/2000/svg"
 width="998.000000pt" height="212.000000pt" viewBox="0 0 998.000000 212.000000"
 preserveAspectRatio="xMidYMid meet">
<metadata>
Created by potrace 1.16, written by Peter Selinger 2001-2019
</metadata>
<g transform="translate(0.000000,212.000000) scale(0.100000,-0.100000)"
fill="#000000" stroke="none">
<path d="M3505 1788 l-13 -33 -89 -1 c-107 -1 -160 -21 -207 -76 -42 -49 -60
-112 -53 -184 8 -74 42 -125 104 -155 41 -20 62 -23 145 -22 76 2 97 -1 102
-12 12 -33 24 -11 25 45 0 33 -3 60 -6 60 -3 0 -14 -11 -24 -24 -26 -33 -108
-53 -150 -36 -38 16 -76 61 -89 108 -21 75 -21 75 80 70 66 -3 94 -9 108 -21
19 -17 20 -16 31 29 7 25 10 49 7 51 -3 3 -19 0 -37 -6 -28 -10 -199 -16 -199
-8 0 2 7 26 15 54 22 73 64 107 124 100 34 -4 52 -13 73 -36 15 -17 30 -31 32
-31 2 0 7 15 11 33 4 17 18 51 31 73 22 39 22 54 2 54 -5 0 -15 -15 -23 -32z"/>
<path d="M4856 1798 c-9 -12 -16 -28 -16 -36 0 -10 -10 -11 -47 -5 -117 20
-217 -10 -282 -83 -65 -74 -78 -162 -37 -251 32 -68 90 -103 181 -111 82 -6
141 15 189 68 87 97 45 180 -92 180 -103 0 -166 -37 -144 -85 9 -20 19 -25 49
-25 50 0 70 12 48 30 -22 19 -18 39 11 52 24 11 29 9 55 -20 61 -68 20 -172
-68 -172 -50 0 -104 37 -129 87 -10 21 -20 68 -22 104 -7 119 50 199 142 199
31 0 45 -7 77 -39 22 -21 39 -48 39 -61 0 -42 25 -14 31 36 8 56 23 99 38 109
14 8 14 45 2 45 -6 0 -17 -10 -25 -22z"/>
<path d="M2100 1790 c-11 -11 -20 -24 -20 -30 0 -6 -36 -10 -89 -10 -78 0 -95
-3 -142 -28 -77 -40 -112 -99 -112 -190 0 -141 75 -214 221 -216 l73 0 -6 -34
c-5 -26 -3 -33 7 -30 7 3 14 13 16 24 1 10 15 45 29 76 29 63 25 86 -8 44 -47
-60 -127 -74 -177 -31 -42 35 -63 96 -64 180 0 90 26 148 77 172 49 23 109 5
137 -43 11 -19 23 -32 28 -29 4 2 10 28 14 56 5 36 14 58 32 74 14 13 21 26
15 29 -6 4 -19 -2 -31 -14z"/>
<path d="M4142 1785 c-11 -24 -15 -25 -124 -27 -62 -1 -137 -1 -165 0 -42 3
-53 0 -53 -12 0 -10 12 -16 37 -18 30 -2 39 -8 44 -28 9 -33 11 -247 3 -343
l-7 -76 -38 -15 c-35 -14 -56 -32 -47 -41 2 -3 31 7 64 20 40 17 79 25 122 25
47 0 62 3 62 14 0 9 -12 16 -32 18 l-33 3 -3 74 -3 73 58 -7 c66 -8 73 -11 73
-31 0 -30 19 -12 25 24 4 20 9 49 11 65 6 30 -2 33 -30 12 -12 -9 -42 -15 -78
-15 l-59 0 3 108 3 107 53 -1 c60 -2 92 -23 92 -61 0 -47 25 -17 31 38 4 30
11 66 17 80 17 43 -7 56 -26 14z"/>
<path d="M5515 1778 c-16 -5 -99 -13 -183 -16 -91 -4 -152 -11 -152 -17 0 -5
7 -10 16 -10 31 0 37 -34 31 -199 -2 -89 -8 -169 -12 -178 -4 -10 -18 -18 -31
-18 -13 0 -24 -4 -24 -10 0 -6 38 -10 95 -10 87 0 122 10 76 23 -16 4 -20 18
-26 80 -13 134 10 194 81 217 71 24 124 -36 124 -138 0 -70 -13 -112 -52 -170
-38 -56 -35 -86 10 -90 33 -3 82 19 82 38 0 5 -10 9 -22 7 -40 -4 -35 43 16
136 57 105 67 161 37 210 -21 35 -80 67 -120 67 -11 0 -49 -15 -85 -34 l-66
-35 0 44 c0 58 14 65 133 65 78 0 97 3 110 18 30 33 19 39 -38 20z"/>
<path d="M1185 1765 c-22 -8 -68 -15 -102 -15 -65 0 -84 -13 -34 -23 37 -8 41
-23 41 -189 0 -168 -15 -217 -62 -202 -12 4 -18 0 -18 -11 0 -14 7 -16 43 -11
60 9 74 9 148 1 74 -9 117 2 169 40 76 56 93 134 40 179 -17 14 -46 28 -66 32
l-34 6 40 44 c28 30 40 53 40 73 0 73 -104 112 -205 76z m94 -41 c12 -15 21
-41 21 -59 0 -18 -9 -44 -21 -59 -17 -21 -29 -26 -66 -26 l-45 0 4 71 c3 55 8
74 23 85 29 21 61 17 84 -12z m38 -208 c37 -44 29 -128 -16 -163 -27 -21 -79
-15 -106 12 -23 22 -25 32 -25 106 l0 81 62 -4 c51 -4 65 -9 85 -32z"/>
<path d="M2555 1765 c-22 -8 -68 -15 -102 -15 -65 0 -84 -13 -34 -23 37 -8 41
-23 41 -189 0 -168 -15 -217 -62 -202 -12 4 -18 0 -18 -11 0 -14 7 -16 43 -11
57 9 70 9 162 1 73 -6 84 -5 125 17 121 65 173 234 108 350 -45 79 -170 118
-263 83z m104 -30 c41 -21 79 -69 92 -118 15 -56 7 -153 -16 -201 -35 -74
-122 -99 -171 -51 -25 25 -25 25 -22 191 3 150 5 167 22 180 25 18 60 18 95
-1z"/>
<path d="M380 1757 c0 -10 18 -16 61 -21 50 -6 58 -9 46 -19 -9 -7 -27 -62
-42 -132 -33 -146 -58 -213 -91 -242 -14 -13 -24 -23 -22 -24 33 -6 147 -5
160 2 26 14 22 29 -7 29 -13 0 -29 8 -34 18 -11 20 7 123 23 134 6 4 32 8 58
8 56 0 61 -6 77 -101 14 -83 14 -79 -6 -79 -9 0 -13 -3 -9 -7 10 -11 156 -12
156 -2 0 5 -7 9 -15 9 -23 0 -33 29 -65 190 -38 189 -38 210 -6 210 30 0 56 9
56 20 0 5 -51 8 -112 7 -62 -1 -139 2 -170 6 -48 7 -58 6 -58 -6z m174 -54 c8
-30 27 -145 24 -148 -2 -1 -25 -7 -52 -13 l-48 -10 6 38 c8 48 46 150 57 150
4 0 10 -8 13 -17z"/>
<path d="M7817 1764 c-3 -3 -50 -7 -104 -8 -54 -1 -98 -7 -98 -12 0 -5 14 -10
31 -12 23 -2 34 -9 38 -25 8 -30 6 -261 -2 -317 -7 -43 -9 -45 -50 -54 -56
-13 -49 -32 9 -26 95 10 282 5 287 -7 8 -27 23 -12 17 16 -4 17 -1 38 7 50 16
26 4 38 -25 23 -26 -14 -102 -31 -135 -32 l-23 0 3 179 c2 99 6 183 10 186 4
4 22 10 39 14 36 7 52 31 22 31 -11 0 -22 -3 -26 -6z"/>
<path d="M8429 1759 c-108 -16 -166 -79 -184 -201 -14 -90 34 -187 112 -227
26 -13 113 -15 113 -2 0 5 -15 14 -34 21 -69 22 -106 92 -106 197 0 79 23 138
65 171 53 42 107 18 121 -53 11 -60 0 -318 -14 -323 -33 -11 -4 -22 58 -22 39
0 70 3 70 6 0 3 -7 12 -16 21 -13 13 -15 41 -12 179 3 156 4 163 27 188 48 51
126 24 149 -52 15 -50 15 -169 1 -213 -18 -53 -57 -99 -90 -106 -16 -3 -29 -9
-29 -14 0 -16 50 -10 89 11 84 42 137 150 129 261 -9 120 -99 179 -238 155
-66 -11 -84 -11 -130 1 -19 5 -56 6 -81 2z"/>
<path d="M5893 1748 c4 -13 9 -14 51 -17 17 -1 18 -10 14 -180 -4 -191 -9
-211 -54 -211 -12 0 -26 -4 -29 -10 -4 -6 37 -10 114 -10 69 0 121 4 121 9 0
6 -15 11 -32 13 l-33 3 -3 140 c-2 77 0 163 3 191 6 47 9 52 36 58 16 3 29 10
29 16 0 6 -42 10 -111 10 -84 0 -110 -3 -106 -12z"/>
<path d="M6403 1746 c2 -6 16 -12 30 -14 19 -2 29 -11 33 -29 10 -38 -2 -384
-14 -414 -15 -37 -40 -59 -68 -59 -15 0 -24 -6 -24 -15 0 -32 51 -16 97 30 24
25 48 45 53 45 5 0 16 7 24 16 13 13 16 44 16 183 0 200 4 229 36 242 46 17
23 24 -81 25 -70 0 -104 -3 -102 -10z"/>
<path d="M6903 1745 c2 -5 16 -11 30 -13 l27 -3 0 -182 c0 -100 -4 -187 -8
-194 -4 -6 -24 -14 -45 -18 -58 -11 -46 -29 16 -21 28 3 85 6 125 6 41 0 72 4
72 10 0 6 -13 10 -30 10 -38 0 -50 23 -50 99 0 50 4 62 21 75 42 29 84 -9 165
-144 47 -77 103 -121 153 -117 19 1 36 8 39 15 2 8 -5 12 -25 10 -15 -1 -37 3
-49 10 -24 13 -84 121 -77 139 8 22 -18 84 -44 107 -13 11 -38 26 -55 32 l-31
10 92 79 c50 43 91 85 91 92 0 10 -22 13 -85 13 -69 0 -85 -3 -85 -15 0 -9 9
-15 25 -15 48 0 31 -39 -52 -120 l-78 -75 -3 35 c-2 19 -1 63 3 98 5 51 10 62
25 62 23 0 50 10 50 19 0 4 -50 7 -110 7 -71 0 -109 -4 -107 -11z"/>
<path d="M9167 1754 c-10 -11 3 -24 23 -24 10 0 21 -7 24 -16 8 -20 8 -322 0
-351 -4 -16 -14 -23 -30 -23 -13 0 -24 -4 -24 -10 0 -6 38 -10 95 -10 52 0 95
4 95 9 0 5 -10 11 -22 13 -23 3 -23 6 -26 151 l-3 149 40 39 c33 34 45 39 83
39 46 0 71 -17 97 -67 24 -46 9 -240 -23 -305 l-14 -28 74 0 c43 0 74 4 74 10
0 6 -11 10 -24 10 -14 0 -27 4 -30 8 -3 5 9 51 25 103 37 115 42 207 12 248
-47 64 -156 80 -250 36 l-53 -24 0 24 c0 24 -2 25 -68 25 -38 0 -72 -3 -75 -6z"/>
<path d="M8324 913 c-30 -63 -29 -72 6 -53 24 13 193 32 201 22 4 -4 -21 -46
-55 -94 -33 -47 -82 -120 -108 -162 -27 -44 -60 -84 -78 -94 -43 -24 -32 -36
31 -33 52 2 220 -14 266 -25 13 -4 23 -12 23 -20 0 -26 19 -14 40 24 11 20 26
45 32 54 18 25 7 29 -37 13 -44 -16 -207 -19 -240 -5 -11 5 -14 9 -7 9 17 1
87 99 163 226 34 58 71 114 81 125 10 10 18 23 18 29 0 5 -42 7 -104 4 -127
-7 -193 2 -198 25 -2 10 -16 -7 -34 -45z"/>
<path d="M1280 950 c-14 -4 -55 -8 -92 -9 -64 -1 -94 -16 -45 -23 19 -3 23
-11 30 -68 9 -72 1 -328 -11 -375 -7 -23 -23 -37 -77 -67 -49 -26 -65 -39 -53
-43 9 -4 50 12 99 39 46 24 105 50 132 57 50 12 63 29 23 29 -21 0 -24 6 -30
53 -11 98 -14 94 58 99 115 10 187 75 194 178 5 70 -6 94 -58 120 -41 21 -121
26 -170 10z m119 -44 c48 -48 44 -158 -8 -210 -23 -22 -38 -29 -71 -29 -64 0
-69 11 -62 138 7 104 8 110 32 122 33 18 79 8 109 -21z"/>
<path d="M2610 953 c-14 -2 -45 -11 -68 -20 -31 -11 -59 -13 -94 -9 -39 5 -49
4 -46 -6 3 -7 17 -14 32 -16 38 -5 46 -34 46 -175 0 -167 -6 -196 -39 -203
-45 -10 -55 -14 -45 -22 13 -10 244 -2 244 9 0 5 -11 9 -24 9 -51 0 -56 7 -56
86 l0 74 38 0 c34 0 45 -8 137 -104 55 -57 114 -111 132 -120 41 -20 107 -21
123 -1 16 19 5 34 -12 17 -7 -7 -21 -12 -33 -12 -49 0 -145 106 -145 162 0 30
-39 66 -81 75 l-27 5 49 47 c44 43 49 52 49 92 0 24 -7 54 -15 66 -21 31 -110
55 -165 46z m66 -44 c14 -16 19 -36 19 -84 0 -83 -26 -115 -93 -115 l-44 0 4
95 c2 80 6 96 23 109 29 22 69 19 91 -5z"/>
<path d="M3459 945 c-13 -13 -24 -14 -62 -5 -120 26 -237 -38 -237 -129 0 -58
29 -87 113 -113 115 -35 155 -91 102 -143 -29 -30 -63 -32 -116 -5 -39 21 -52
39 -64 93 -7 34 -31 45 -53 23 -15 -15 -15 -16 6 -16 19 0 22 -6 22 -35 0 -20
-7 -49 -15 -66 -15 -29 -15 -30 12 -40 53 -21 156 -23 194 -4 69 35 100 80
101 146 1 57 -37 94 -123 120 -37 11 -76 29 -88 40 -43 41 -13 99 53 99 39 0
92 -34 108 -70 19 -43 35 -37 41 16 3 27 13 54 26 68 11 12 21 25 21 29 0 13
-25 7 -41 -8z"/>
<path d="M3771 904 c-23 -62 -21 -76 8 -50 10 9 42 19 71 23 l53 6 -46 -46
c-61 -60 -80 -106 -75 -180 5 -63 25 -98 77 -134 99 -67 264 -22 319 88 29 59
19 93 -35 116 -51 21 -153 14 -190 -13 -36 -27 -38 -39 -13 -64 17 -17 29 -21
53 -16 40 8 43 12 24 31 -30 30 3 62 47 45 54 -20 51 -117 -5 -164 -119 -100
-241 104 -159 265 29 55 58 69 144 69 55 0 79 -4 90 -16 13 -12 17 -13 21 -2
31 85 34 98 22 98 -7 0 -19 -6 -25 -12 -9 -9 -61 -14 -168 -16 -132 -3 -158
-1 -173 12 -17 15 -19 13 -40 -40z"/>
<path d="M1870 940 c-128 -24 -213 -148 -189 -277 20 -105 87 -159 218 -175
154 -18 241 -57 241 -108 0 -17 -4 -20 -20 -15 -24 8 -28 -20 -4 -29 26 -10
60 35 68 89 9 58 -1 70 -72 79 -26 4 -61 9 -79 12 l-32 6 36 36 c49 49 76 114
76 183 -2 135 -110 224 -243 199z m70 -45 c66 -34 101 -186 66 -280 -19 -49
-66 -95 -98 -95 -37 0 -86 39 -109 86 -28 59 -34 116 -19 187 20 99 85 141
160 102z"/>
<path d="M502 915 c-190 -97 -169 -371 32 -416 89 -20 155 -1 221 64 90 88
109 208 46 294 -38 53 -90 76 -176 81 -60 3 -77 0 -123 -23z m168 -25 c43 -30
63 -76 68 -160 4 -62 1 -85 -16 -123 -22 -51 -70 -87 -113 -87 -39 0 -91 40
-117 90 -20 38 -23 57 -20 126 2 66 7 87 28 117 43 63 112 78 170 37z"/>
<path d="M4488 911 c-6 -40 -3 -42 30 -25 28 14 62 19 62 8 0 -3 -9 -18 -20
-34 -56 -79 -76 -192 -46 -263 39 -95 175 -133 274 -76 31 18 32 18 32 -1 0
-17 7 -20 39 -20 22 0 43 -4 46 -10 7 -12 55 -14 55 -2 0 4 -10 12 -22 17 -22
10 -23 15 -26 165 -4 196 1 238 31 242 12 2 22 7 22 12 0 4 -46 10 -102 11
-81 2 -103 0 -103 -10 0 -8 14 -15 33 -17 l32 -3 3 -130 c3 -158 -9 -204 -64
-230 -95 -45 -174 37 -174 178 0 73 20 140 52 174 12 13 20 25 17 27 -2 2 -41
7 -85 11 l-81 7 -5 -31z"/>
<path d="M5234 931 c-11 -11 -2 -21 19 -21 20 0 32 -24 107 -207 52 -125 91
-209 100 -210 20 -4 44 36 152 243 52 101 96 174 104 174 8 0 14 6 14 13 0 9
-25 12 -90 13 -60 0 -89 -3 -87 -10 2 -6 16 -12 30 -14 19 -2 27 -9 27 -23 0
-43 -94 -279 -111 -279 -8 0 -53 110 -94 232 l-23 67 24 3 c14 2 24 7 24 13 0
9 -187 15 -196 6z"/>
<path d="M5960 930 c0 -5 6 -10 14 -10 10 0 30 -48 61 -147 68 -220 90 -278
105 -278 16 0 63 77 98 162 14 35 28 60 31 57 3 -3 22 -53 42 -112 23 -69 41
-107 50 -107 17 0 75 109 156 289 37 81 64 131 76 134 42 11 11 22 -63 22 -47
0 -80 -4 -80 -10 0 -5 11 -10 25 -10 20 0 25 -5 25 -24 0 -31 -42 -166 -76
-242 l-26 -59 -13 31 c-16 39 -61 197 -70 247 -7 34 -5 39 14 44 47 12 16 23
-64 23 -78 0 -111 -11 -67 -22 11 -3 23 -26 35 -71 l17 -66 -26 -73 c-41 -115
-44 -118 -61 -77 -15 36 -83 264 -83 280 0 5 9 9 20 9 11 0 20 5 20 10 0 6
-33 10 -80 10 -47 0 -80 -4 -80 -10z"/>
<path d="M6867 928 c-7 -4 -5 -9 8 -13 41 -13 51 -23 97 -100 l48 -78 -28 -17
c-59 -37 -102 -108 -102 -170 0 -25 -4 -30 -25 -30 -33 0 -82 -47 -66 -63 7
-7 17 -3 35 16 23 25 32 27 101 27 78 0 90 6 54 28 -18 12 -21 21 -17 64 5 48
31 97 56 106 7 2 32 -39 59 -97 l48 -100 78 -2 c42 -1 82 -2 87 -3 6 -1 11 4
13 9 1 6 -13 11 -31 13 -29 3 -39 12 -76 70 -24 37 -53 86 -65 109 l-21 43 40
37 c34 30 130 146 130 156 0 1 -34 3 -75 3 -50 0 -75 -4 -75 -12 0 -6 9 -14
20 -17 27 -7 26 -42 -2 -83 -44 -64 -54 -62 -93 15 -34 68 -34 70 -13 73 12 2
23 8 25 15 3 9 -22 11 -97 10 -56 -1 -107 -5 -113 -9z"/>
<path d="M7602 933 c-22 -4 -51 -47 -40 -58 3 -3 18 1 34 10 30 16 68 20 62 8
-2 -5 -17 -35 -34 -68 -36 -69 -46 -107 -46 -175 1 -84 36 -127 122 -150 54
-14 110 -5 156 26 20 14 38 24 39 22 2 -2 0 -27 -3 -57 -9 -72 -21 -79 -114
-62 -139 25 -151 25 -180 1 -31 -23 -38 -46 -12 -36 9 3 58 -1 109 -10 108
-20 147 -15 203 26 73 53 74 56 76 279 2 172 4 203 19 219 9 10 17 22 17 26 0
11 -170 2 -170 -9 -1 -5 11 -11 24 -13 33 -4 39 -38 35 -179 -5 -121 -22 -167
-73 -192 -61 -29 -147 28 -162 106 -9 49 12 188 36 238 11 23 20 44 20 48 0 7
-79 7 -118 0z"/>
</g>
</svg>
